<svg xmlns="http://www.w3.org/2000/svg" xmlns:xlink="http://www.w3.org/1999/xlink" width="113.185" height="116.223" viewBox="0 0 113.185 116.223">
  <defs>
    <clipPath id="clip-path">
      <path id="bgicon" d="M90.978,15.348c-27-26.671-50-14.541-54,5.778S-4.2,45.5.392,69.5s54.586,9.75,54.586,31.5,57.806,21,57.806-7.5S117.978,42.018,90.978,15.348Z" fill="rgba(255,255,255,0.2)"/>
    </clipPath>
  </defs>
  <g id="Group_338" data-name="Group 338" transform="translate(-296.953 -1524.778)">
    <g id="bgicon-2" data-name="bgicon" transform="translate(296.953 1524.778)">
      <g id="Group_1" data-name="Group 1" transform="translate(0 0)">
        <path id="bgicon-3" data-name="bgicon" d="M90.978,15.348c-27-26.671-50-14.541-54,5.778S-4.2,45.5.392,69.5s54.586,9.75,54.586,31.5,57.806,21,57.806-7.5S117.978,42.018,90.978,15.348Z" fill="rgba(255,255,255,0.2)"/>
        <g id="Mask_Group_3" data-name="Mask Group 3" clip-path="url(#clip-path)">
          <g id="Color_Blue" data-name="Color/Blue" opacity="0.2">
            <rect id="Rectangle" width="114" height="117" fill="#459eff"/>
          </g>
        </g>
      </g>
    </g>
    <g id="Group_204" data-name="Group 204" transform="translate(132.629 1671.287)">
      <g id="Group_192" data-name="Group 192" transform="translate(197.586 -115.206)">
        <path id="Path_635" data-name="Path 635" d="M200.692-105.091a1.47,1.47,0,0,1-1.042-.432l-5.894-5.894a1.467,1.467,0,0,1-.43-1.108,1.468,1.468,0,0,1,.53-1.065l5.894-4.907a1.472,1.472,0,0,1,1.568-.2,1.471,1.471,0,0,1,.847,1.334v10.8a1.472,1.472,0,0,1-.909,1.362A1.482,1.482,0,0,1,200.692-105.091Zm-3.71-7.268,2.237,2.237v-4.1Z" transform="translate(-193.324 118.839)" fill="#333"/>
      </g>
      <g id="Group_193" data-name="Group 193" transform="translate(235.899 -115.207)">
        <path id="Path_636" data-name="Path 636" d="M220.8-105.091a1.483,1.483,0,0,1-.564-.112,1.474,1.474,0,0,1-.909-1.362v-10.8a1.47,1.47,0,0,1,.849-1.334,1.467,1.467,0,0,1,1.568.2l5.894,4.907a1.466,1.466,0,0,1,.529,1.065,1.467,1.467,0,0,1-.43,1.108l-5.894,5.894A1.468,1.468,0,0,1,220.8-105.091Zm1.474-9.13v4.1l2.237-2.237Z" transform="translate(-219.324 118.839)" fill="#333"/>
      </g>
      <g id="Group_194" data-name="Group 194" transform="translate(197.586 -110.3)">
        <path id="Path_637" data-name="Path 637" d="M236.057-86.038H197.745a4.425,4.425,0,0,1-4.421-4.421v-23.577a1.476,1.476,0,0,1,.909-1.362,1.471,1.471,0,0,1,1.606.32l19.584,19.584a2.134,2.134,0,0,0,2.956,0l19.584-19.584a1.471,1.471,0,0,1,1.606-.32,1.474,1.474,0,0,1,.909,1.362v23.577A4.424,4.424,0,0,1,236.057-86.038Zm-39.786-24.44v20.02a1.476,1.476,0,0,0,1.474,1.474h38.313a1.476,1.476,0,0,0,1.474-1.474v-20.02L220.463-93.41a5.15,5.15,0,0,1-7.123,0Z" transform="translate(-193.324 115.509)" fill="#333"/>
      </g>
      <g id="Group_195" data-name="Group 195" transform="translate(203.48 -126.509)">
        <path id="Path_638" data-name="Path 638" d="M215.007-86.723a5,5,0,0,1-3.562-1.478L197.756-101.89a1.476,1.476,0,0,1-.432-1.042v-19.156a4.426,4.426,0,0,1,4.421-4.421h26.524a4.425,4.425,0,0,1,4.421,4.421v19.156a1.47,1.47,0,0,1-.432,1.042L218.568-88.2A5,5,0,0,1,215.007-86.723Zm-14.736-16.819,13.258,13.258a2.134,2.134,0,0,0,2.956,0l13.258-13.258v-18.546a1.476,1.476,0,0,0-1.474-1.474H201.745a1.476,1.476,0,0,0-1.474,1.474Zm30.945.61h0Z" transform="translate(-197.324 126.509)" fill="#333"/>
      </g>
      <g id="Group_196" data-name="Group 196" transform="translate(216.742 -120.615)">
        <path id="Path_639" data-name="Path 639" d="M217.67-101.879a2.374,2.374,0,0,1-.584-.059,3.33,3.33,0,0,1-2.26-1.471,6.488,6.488,0,0,0-5.421-2.891H207.8a1.474,1.474,0,0,1-1.474-1.474v-8.841a1.474,1.474,0,0,1,1.474-1.474h1.608a6.494,6.494,0,0,0,5.432-2.906,3.325,3.325,0,0,1,2.249-1.456,2.392,2.392,0,0,1,.585-.059,3.394,3.394,0,0,1,3.389,3.391v13.85A3.393,3.393,0,0,1,217.67-101.879Zm.184-2.9h0Zm-8.583-4.466h.134a9.431,9.431,0,0,1,7.888,4.226.4.4,0,0,0,.295.178c.028,0,.057.009.085.015a.442.442,0,0,0,.439-.441v-13.85a.438.438,0,0,0-.429-.444c-.031.007-.062.012-.094.016a.4.4,0,0,0-.286.164,9.44,9.44,0,0,1-7.9,4.241h-.134Zm8.4-11.788-.047,1.474.047,0Zm.187,1.428h0Zm-.467-1.4h0Z" transform="translate(-206.324 122.509)" fill="#333"/>
      </g>
      <g id="Group_197" data-name="Group 197" transform="translate(209.374 -116.194)">
        <path id="Path_640" data-name="Path 640" d="M210.165-107.721h-2.947a5.9,5.9,0,0,1-5.894-5.894,5.9,5.9,0,0,1,5.894-5.894h2.947a1.474,1.474,0,0,1,1.474,1.474v8.841A1.474,1.474,0,0,1,210.165-107.721Zm-2.947-8.841a2.95,2.95,0,0,0-2.947,2.947,2.95,2.95,0,0,0,2.947,2.947h1.474v-5.894Z" transform="translate(-201.324 119.509)" fill="#333"/>
      </g>
      <g id="Group_198" data-name="Group 198" transform="translate(213.795 -107.351)">
        <path id="Path_641" data-name="Path 641" d="M208.746-103.193a1.476,1.476,0,0,1-1.369-.927l-2.947-7.368a1.472,1.472,0,0,1,.821-1.916,1.477,1.477,0,0,1,1.916.821l2.947,7.368a1.475,1.475,0,0,1-.821,1.916A1.5,1.5,0,0,1,208.746-103.193Z" transform="translate(-204.324 113.508)" fill="#333"/>
      </g>
      <g id="Group_199" data-name="Group 199" transform="translate(184.324 -120.615)">
        <path id="Path_642" data-name="Path 642" d="M247.687-65.04H194.639a10.326,10.326,0,0,1-10.315-10.315v-36.839a10.326,10.326,0,0,1,10.315-10.315h10.315a1.474,1.474,0,0,1,1.474,1.474,1.474,1.474,0,0,1-1.474,1.474H194.639a7.376,7.376,0,0,0-7.368,7.368v36.839a7.376,7.376,0,0,0,7.368,7.368h53.048a7.376,7.376,0,0,0,7.368-7.368v-36.839a7.376,7.376,0,0,0-7.368-7.368H237.372a1.474,1.474,0,0,1-1.474-1.474,1.474,1.474,0,0,1,1.474-1.474h10.315A10.326,10.326,0,0,1,258-112.194v36.839A10.326,10.326,0,0,1,247.687-65.04Z" transform="translate(-184.324 122.509)" fill="#333"/>
      </g>
      <g id="Group_200" data-name="Group 200" transform="translate(184.324 -77.882)">
        <path id="Path_643" data-name="Path 643" d="M247.687-78.773H194.639a10.326,10.326,0,0,1-10.315-10.315v-2.947a1.474,1.474,0,0,1,1.474-1.474h70.731A1.474,1.474,0,0,1,258-92.035v2.947A10.326,10.326,0,0,1,247.687-78.773ZM187.271-90.562v1.474a7.376,7.376,0,0,0,7.368,7.368h53.048a7.376,7.376,0,0,0,7.368-7.368v-1.474Z" transform="translate(-184.324 93.509)" fill="#333"/>
      </g>
      <g id="Group_201" data-name="Group 201" transform="translate(218.216 -71.987)">
        <path id="Path_644" data-name="Path 644" d="M211.745-86.562H208.8a1.474,1.474,0,0,1-1.474-1.474,1.474,1.474,0,0,1,1.474-1.474h2.947a1.474,1.474,0,0,1,1.474,1.474A1.474,1.474,0,0,1,211.745-86.562Z" transform="translate(-207.324 89.509)" fill="#333"/>
      </g>
      <g id="Group_202" data-name="Group 202" transform="translate(207.901 -66.093)">
        <path id="Path_645" data-name="Path 645" d="M225.374-69.3H201.8a1.472,1.472,0,0,1-1.149-.551,1.473,1.473,0,0,1-.289-1.242l2.947-13.262a1.474,1.474,0,0,1,1.438-1.154h17.683a1.473,1.473,0,0,1,1.438,1.154l2.947,13.262a1.473,1.473,0,0,1-.289,1.242A1.47,1.47,0,0,1,225.374-69.3Zm-21.739-2.947h19.9l-2.293-10.315H205.926Z" transform="translate(-200.324 85.509)" fill="#333"/>
      </g>
      <g id="Group_203" data-name="Group 203" transform="translate(204.954 -52.831)">
        <path id="Path_646" data-name="Path 646" d="M229.269-73.562H199.8a1.474,1.474,0,0,1-1.474-1.474,1.474,1.474,0,0,1,1.474-1.474h29.471a1.474,1.474,0,0,1,1.474,1.474A1.474,1.474,0,0,1,229.269-73.562Z" transform="translate(-198.324 76.509)" fill="#333"/>
      </g>
    </g>
  </g>
</svg>
