<svg xmlns="http://www.w3.org/2000/svg" xmlns:xlink="http://www.w3.org/1999/xlink" width="113.185" height="116.223" viewBox="0 0 113.185 116.223">
  <defs>
    <clipPath id="clip-path">
      <path id="bgicon" d="M90.978,15.348c-27-26.671-50-14.541-54,5.778S-4.2,45.5.392,69.5s54.586,9.75,54.586,31.5,57.806,21,57.806-7.5S117.978,42.018,90.978,15.348Z" fill="rgba(255,255,255,0.2)"/>
    </clipPath>
  </defs>
  <g id="Group_339" data-name="Group 339" transform="translate(-782.953 -1540)">
    <g id="bgicon-2" data-name="bgicon" transform="translate(782.953 1540)">
      <g id="Group_1" data-name="Group 1" transform="translate(0 0)">
        <path id="bgicon-3" data-name="bgicon" d="M90.978,15.348c-27-26.671-50-14.541-54,5.778S-4.2,45.5.392,69.5s54.586,9.75,54.586,31.5,57.806,21,57.806-7.5S117.978,42.018,90.978,15.348Z" fill="rgba(255,255,255,0.2)"/>
        <g id="Mask_Group_3" data-name="Mask Group 3" clip-path="url(#clip-path)">
          <g id="Color_Blue" data-name="Color/Blue" opacity="0.2">
            <rect id="Rectangle" width="114" height="117" fill="#459eff"/>
          </g>
        </g>
      </g>
    </g>
    <g id="Group_249" data-name="Group 249" transform="translate(785.953 2069.51)">
      <g id="Group_205" data-name="Group 205" transform="translate(13.867 -511.642)">
        <path id="Path_647" data-name="Path 647" d="M24.467-489.575A11.48,11.48,0,0,1,13-501.042a11.48,11.48,0,0,1,11.467-11.467,11.48,11.48,0,0,1,11.467,11.467A11.48,11.48,0,0,1,24.467-489.575Zm0-20.067a8.61,8.61,0,0,0-8.6,8.6,8.609,8.609,0,0,0,8.6,8.6,8.609,8.609,0,0,0,8.6-8.6A8.61,8.61,0,0,0,24.467-509.642Z" transform="translate(-13 512.509)" fill="#333"/>
      </g>
      <g id="Group_206" data-name="Group 206" transform="translate(71.201 -511.642)">
        <path id="Path_648" data-name="Path 648" d="M64.467-489.575A11.48,11.48,0,0,1,53-501.042a11.48,11.48,0,0,1,11.467-11.467,11.48,11.48,0,0,1,11.467,11.467A11.48,11.48,0,0,1,64.467-489.575Zm0-20.067a8.61,8.61,0,0,0-8.6,8.6,8.609,8.609,0,0,0,8.6,8.6,8.609,8.609,0,0,0,8.6-8.6A8.61,8.61,0,0,0,64.467-509.642Z" transform="translate(-53 512.509)" fill="#333"/>
      </g>
      <g id="Group_207" data-name="Group 207" transform="translate(13.867 -454.308)">
        <path id="Path_649" data-name="Path 649" d="M24.467-449.575A11.48,11.48,0,0,1,13-461.042a11.48,11.48,0,0,1,11.467-11.467,11.48,11.48,0,0,1,11.467,11.467A11.48,11.48,0,0,1,24.467-449.575Zm0-20.067a8.61,8.61,0,0,0-8.6,8.6,8.609,8.609,0,0,0,8.6,8.6,8.609,8.609,0,0,0,8.6-8.6A8.61,8.61,0,0,0,24.467-469.642Z" transform="translate(-13 472.509)" fill="#333"/>
      </g>
      <g id="Group_208" data-name="Group 208" transform="translate(71.201 -454.308)">
        <path id="Path_650" data-name="Path 650" d="M64.467-449.575A11.48,11.48,0,0,1,53-461.042a11.48,11.48,0,0,1,11.467-11.467,11.48,11.48,0,0,1,11.467,11.467A11.48,11.48,0,0,1,64.467-449.575Zm0-20.067a8.61,8.61,0,0,0-8.6,8.6,8.609,8.609,0,0,0,8.6,8.6,8.609,8.609,0,0,0,8.6-8.6A8.61,8.61,0,0,0,64.467-469.642Z" transform="translate(-53 472.509)" fill="#333"/>
      </g>
      <g id="Group_209" data-name="Group 209" transform="translate(49.7 -482.975)">
        <path id="Path_651" data-name="Path 651" d="M49.037-472.442a2.308,2.308,0,0,1-.568-.057,3.233,3.233,0,0,1-2.2-1.432A6.311,6.311,0,0,0,41-476.742H39.433A1.433,1.433,0,0,1,38-478.175v-8.6a1.433,1.433,0,0,1,1.433-1.433H41a6.313,6.313,0,0,0,5.283-2.827,3.234,3.234,0,0,1,2.189-1.416,2.327,2.327,0,0,1,.569-.057,3.3,3.3,0,0,1,3.3,3.3v13.472A3.3,3.3,0,0,1,49.037-472.442Zm.175-2.824h0Zm-8.345-4.343H41A9.176,9.176,0,0,1,48.67-475.5a.386.386,0,0,0,.287.173c.027,0,.056.009.082.014a.431.431,0,0,0,.429-.429v-13.472a.427.427,0,0,0-.419-.431c-.03.007-.06.011-.09.016a.392.392,0,0,0-.278.158A9.181,9.181,0,0,1,41-485.342h-.129Zm8.17-11.467-.047,1.433.047,0Zm.176,1.389h0Zm-.449-1.36h0Z" transform="translate(-38 492.509)" fill="#333"/>
      </g>
      <g id="Group_210" data-name="Group 210" transform="translate(42.534 -478.675)">
        <path id="Path_652" data-name="Path 652" d="M41.6-478.042H38.733A5.739,5.739,0,0,1,33-483.776a5.74,5.74,0,0,1,5.733-5.733H41.6a1.433,1.433,0,0,1,1.433,1.433v8.6A1.433,1.433,0,0,1,41.6-478.042Zm-2.867-8.6a2.87,2.87,0,0,0-2.867,2.867,2.87,2.87,0,0,0,2.867,2.867h1.433v-5.733Z" transform="translate(-33 489.509)" fill="#333"/>
      </g>
      <g id="Group_211" data-name="Group 211" transform="translate(46.833 -470.074)">
        <path id="Path_653" data-name="Path 653" d="M40.3-473.474a1.439,1.439,0,0,1-1.332-.9L36.1-481.543a1.434,1.434,0,0,1,.8-1.863,1.437,1.437,0,0,1,1.863.8l2.867,7.167a1.434,1.434,0,0,1-.8,1.863A1.445,1.445,0,0,1,40.3-473.474Z" transform="translate(-35.999 483.508)" fill="#333"/>
      </g>
      <g id="Group_212" data-name="Group 212" transform="translate(33.934 -491.575)">
        <path id="Path_654" data-name="Path 654" d="M47.067-458.375A20.089,20.089,0,0,1,27-478.442a20.089,20.089,0,0,1,20.067-20.067,20.089,20.089,0,0,1,20.067,20.067A20.089,20.089,0,0,1,47.067-458.375Zm0-37.267a17.22,17.22,0,0,0-17.2,17.2,17.219,17.219,0,0,0,17.2,17.2,17.219,17.219,0,0,0,17.2-17.2A17.22,17.22,0,0,0,47.067-495.642Z" transform="translate(-27 498.509)" fill="#333"/>
      </g>
      <g id="Group_216" data-name="Group 216" transform="translate(31.124 -514.51)">
        <g id="Group_213" data-name="Group 213" transform="translate(0 5.96)">
          <path id="Path_655" data-name="Path 655" d="M26.473-507.5a1.443,1.443,0,0,1-1.018-.416,1.338,1.338,0,0,1-.3-.473,1.427,1.427,0,0,1-.115-.545,1.427,1.427,0,0,1,.115-.545,1.416,1.416,0,0,1,.3-.459,1.3,1.3,0,0,1,.473-.315,1.468,1.468,0,0,1,1.562.315,1.446,1.446,0,0,1,.416,1,1.427,1.427,0,0,1-.115.545,1.338,1.338,0,0,1-.3.473A1.443,1.443,0,0,1,26.473-507.5Z" transform="translate(-25.04 510.352)" fill="#333"/>
        </g>
        <g id="Group_214" data-name="Group 214" transform="translate(5)">
          <path id="Path_656" data-name="Path 656" d="M28.645-509.135a1.431,1.431,0,0,1,.745-1.878h0a1.435,1.435,0,0,1,1.892.745h0a1.421,1.421,0,0,1-.76,1.878h.014a1.387,1.387,0,0,1-.573.129h0A1.431,1.431,0,0,1,28.645-509.135Zm33.625.745a1.43,1.43,0,0,1-.758-1.878h0a1.453,1.453,0,0,1,1.891-.76h0a1.448,1.448,0,0,1,.747,1.892h0a1.418,1.418,0,0,1-1.319.86h0A1.268,1.268,0,0,1,62.27-508.39Zm-28.379-2.8a1.423,1.423,0,0,1,.989-1.763h0a1.415,1.415,0,0,1,1.762.989h0a1.436,1.436,0,0,1-.988,1.777h0a1.8,1.8,0,0,1-.388.043h0A1.423,1.423,0,0,1,33.892-511.185Zm23.249.989a1.448,1.448,0,0,1-1-1.763h0a1.429,1.429,0,0,1,1.763-.989h0v-.014h0a1.427,1.427,0,0,1,1,1.763h0a1.42,1.42,0,0,1-1.376,1.061h0A1.208,1.208,0,0,1,57.14-510.2ZM39.367-512.5a1.436,1.436,0,0,1,1.217-1.62h0a1.446,1.446,0,0,1,1.62,1.233h0a1.424,1.424,0,0,1-1.231,1.605h0a.817.817,0,0,1-.186.014h0A1.412,1.412,0,0,1,39.367-512.5Zm12.456,1.218a1.425,1.425,0,0,1-1.233-1.605h0a1.434,1.434,0,0,1,1.605-1.233h0a1.428,1.428,0,0,1,1.231,1.62h0a1.432,1.432,0,0,1-1.418,1.233h0A.811.811,0,0,1,51.823-511.285Zm-6.866-1.792a1.437,1.437,0,0,1,1.433-1.433h0a1.428,1.428,0,0,1,1.433,1.433h0a1.428,1.428,0,0,1-1.433,1.433h0A1.437,1.437,0,0,1,44.957-513.077Z" transform="translate(-28.528 514.51)" fill="#333"/>
        </g>
        <g id="Group_215" data-name="Group 215" transform="translate(42.886 5.966)">
          <path id="Path_657" data-name="Path 657" d="M56.393-507.5a1.441,1.441,0,0,1-1.018-.416,1.338,1.338,0,0,1-.3-.473,1.183,1.183,0,0,1-.115-.545,1.5,1.5,0,0,1,.416-1.018,1.5,1.5,0,0,1,2.035,0,1.507,1.507,0,0,1,.416,1.018,1.427,1.427,0,0,1-.115.545,1.339,1.339,0,0,1-.3.473A1.446,1.446,0,0,1,56.393-507.5Z" transform="translate(-54.96 510.348)" fill="#333"/>
        </g>
      </g>
      <g id="Group_220" data-name="Group 220" transform="translate(31.124 -437.317)">
        <g id="Group_217" data-name="Group 217">
          <path id="Path_658" data-name="Path 658" d="M26.473-457.8a1.412,1.412,0,0,1-.545-.1,1.817,1.817,0,0,1-.473-.315l-.172-.215a1.086,1.086,0,0,1-.129-.258.911.911,0,0,1-.086-.258,1.943,1.943,0,0,1-.029-.287,1.427,1.427,0,0,1,.115-.545,1.655,1.655,0,0,1,.3-.473,1.48,1.48,0,0,1,.473-.3,1.433,1.433,0,0,1,1.089,0,1.338,1.338,0,0,1,.473.3,1.507,1.507,0,0,1,.416,1.018,1.942,1.942,0,0,1-.029.287.911.911,0,0,1-.086.258,1.086,1.086,0,0,1-.129.258,2.251,2.251,0,0,1-.172.215A1.507,1.507,0,0,1,26.473-457.8Z" transform="translate(-25.04 460.655)" fill="#333"/>
        </g>
        <g id="Group_218" data-name="Group 218" transform="translate(5 2.568)">
          <path id="Path_659" data-name="Path 659" d="M44.957-454.057a1.437,1.437,0,0,1,1.433-1.433h0a1.428,1.428,0,0,1,1.433,1.433h0a1.428,1.428,0,0,1-1.433,1.433h0A1.437,1.437,0,0,1,44.957-454.057Zm5.633-.186a1.433,1.433,0,0,1,1.233-1.605h0a1.424,1.424,0,0,1,1.6,1.233h0A1.415,1.415,0,0,1,52.2-453.01h.014a.946.946,0,0,1-.2.014h0A1.434,1.434,0,0,1,50.59-454.243ZM40.584-453.01a1.428,1.428,0,0,1-1.217-1.62h0a1.415,1.415,0,0,1,1.605-1.218h0a1.424,1.424,0,0,1,1.231,1.605h0A1.445,1.445,0,0,1,40.786-453h0A.966.966,0,0,1,40.584-453.01Zm15.553-2.164a1.448,1.448,0,0,1,1-1.763h0a1.427,1.427,0,0,1,1.763,1h0a1.427,1.427,0,0,1-1,1.763h0a1.573,1.573,0,0,1-.373.043h0A1.452,1.452,0,0,1,56.137-455.175Zm-21.257.989a1.417,1.417,0,0,1-.989-1.763h0a1.423,1.423,0,0,1,1.763-.989h0a1.421,1.421,0,0,1,.988,1.763h0a1.423,1.423,0,0,1-1.376,1.046h0A1.2,1.2,0,0,1,34.881-454.186Zm26.632-2.666a1.441,1.441,0,0,1,.758-1.892h0a1.432,1.432,0,0,1,1.879.76h0a1.437,1.437,0,0,1-.747,1.878h0a1.318,1.318,0,0,1-.572.115h0A1.447,1.447,0,0,1,61.512-456.852Zm-32.121.745h0A1.448,1.448,0,0,1,28.645-458h0a1.424,1.424,0,0,1,1.878-.745h.014a1.436,1.436,0,0,1,.745,1.878h0a1.446,1.446,0,0,1-1.319.874h0A1.635,1.635,0,0,1,29.391-456.107Z" transform="translate(-28.528 458.863)" fill="#333"/>
        </g>
        <g id="Group_219" data-name="Group 219" transform="translate(42.886 0.011)">
          <path id="Path_660" data-name="Path 660" d="M56.393-457.8a1.5,1.5,0,0,1-1.018-.416,1.5,1.5,0,0,1-.416-1.018,1.948,1.948,0,0,1,.027-.272.905.905,0,0,1,.087-.272.8.8,0,0,1,.129-.244,1.368,1.368,0,0,1,.172-.229,1.5,1.5,0,0,1,2.035,0c.057.072.115.143.172.229a.828.828,0,0,1,.129.244.828.828,0,0,1,.085.272,1.6,1.6,0,0,1,.03.272,1.507,1.507,0,0,1-.416,1.018A1.51,1.51,0,0,1,56.393-457.8Z" transform="translate(-54.96 460.648)" fill="#333"/>
        </g>
      </g>
      <g id="Group_224" data-name="Group 224" transform="translate(11 -494.378)">
        <g id="Group_221" data-name="Group 221" transform="translate(5.948 42.885)">
          <path id="Path_661" data-name="Path 661" d="M16.583-467.685a1.443,1.443,0,0,1-1.018-.416,1.338,1.338,0,0,1-.3-.473,1.427,1.427,0,0,1-.115-.545,1.427,1.427,0,0,1,.115-.545,1.655,1.655,0,0,1,.3-.473,1.654,1.654,0,0,1,.473-.3,1.434,1.434,0,0,1,1.089,0,1.479,1.479,0,0,1,.473.3,1.655,1.655,0,0,1,.3.473,1.2,1.2,0,0,1,.115.545A1.507,1.507,0,0,1,17.6-468.1a1.818,1.818,0,0,1-.473.315A1.413,1.413,0,0,1,16.583-467.685Z" transform="translate(-15.15 470.545)" fill="#333"/>
        </g>
        <g id="Group_222" data-name="Group 222" transform="translate(0 5.006)">
          <path id="Path_662" data-name="Path 662" d="M14.5-462.1h0a1.435,1.435,0,0,1,.745-1.892h0a1.443,1.443,0,0,1,1.878.76h0a1.424,1.424,0,0,1-.745,1.878h0a1.3,1.3,0,0,1-.559.115h0A1.418,1.418,0,0,1,14.5-462.1Zm-1.935-5.49h0a1.417,1.417,0,0,1,.989-1.763h0a1.417,1.417,0,0,1,1.763.989h0a1.417,1.417,0,0,1-.989,1.763h0a1.208,1.208,0,0,1-.387.057h0A1.424,1.424,0,0,1,12.562-467.586Zm-1.175-5.7h0a1.447,1.447,0,0,1,1.233-1.62h0a1.426,1.426,0,0,1,1.605,1.233h0a1.415,1.415,0,0,1-1.218,1.605h0a.942.942,0,0,1-.2.014h0A1.434,1.434,0,0,1,11.387-473.29ZM11-479.1h0a1.438,1.438,0,0,1,1.433-1.433h0a1.428,1.428,0,0,1,1.433,1.433h0a1.438,1.438,0,0,1-1.433,1.433h0A1.438,1.438,0,0,1,11-479.1Zm1.62-4.2a1.434,1.434,0,0,1-1.233-1.605h0a1.423,1.423,0,0,1,1.605-1.233h0a1.423,1.423,0,0,1,1.233,1.605h0a1.436,1.436,0,0,1-1.419,1.247h0A.82.82,0,0,1,12.62-483.3Zm.932-5.547a1.449,1.449,0,0,1-1-1.763h0a1.427,1.427,0,0,1,1.763-1h0a1.427,1.427,0,0,1,1,1.763h0a1.436,1.436,0,0,1-1.376,1.046h0A1.778,1.778,0,0,1,13.551-488.842Zm1.691-5.375a1.442,1.442,0,0,1-.76-1.892h0a1.448,1.448,0,0,1,1.892-.745h0a1.436,1.436,0,0,1,.745,1.878h0a1.431,1.431,0,0,1-1.319.874h0A1.5,1.5,0,0,1,15.243-494.217Z" transform="translate(-11 496.972)" fill="#333"/>
        </g>
        <g id="Group_223" data-name="Group 223" transform="translate(5.948)">
          <path id="Path_663" data-name="Path 663" d="M16.583-497.606a1.507,1.507,0,0,1-1.018-.416,1.338,1.338,0,0,1-.3-.473,1.427,1.427,0,0,1-.115-.545,1.507,1.507,0,0,1,.416-1.018,1.458,1.458,0,0,1,1.562-.3,1.481,1.481,0,0,1,.473.3c.057.072.115.143.172.229a.8.8,0,0,1,.129.244.865.865,0,0,1,.086.272,1.757,1.757,0,0,1,.029.272,1.2,1.2,0,0,1-.115.545,1.338,1.338,0,0,1-.3.473,1.657,1.657,0,0,1-.473.3A1.427,1.427,0,0,1,16.583-497.606Z" transform="translate(-15.15 500.464)" fill="#333"/>
        </g>
      </g>
      <g id="Group_228" data-name="Group 228" transform="translate(88.186 -494.374)">
        <g id="Group_225" data-name="Group 225">
          <path id="Path_664" data-name="Path 664" d="M66.283-497.607a1.507,1.507,0,0,1-1.018-.416,2.252,2.252,0,0,1-.172-.215,1.033,1.033,0,0,1-.129-.258.868.868,0,0,1-.086-.258.975.975,0,0,1-.029-.287,1.2,1.2,0,0,1,.115-.545,1.394,1.394,0,0,1,.3-.459,1.186,1.186,0,0,1,.473-.315,1.468,1.468,0,0,1,1.562.315,1.441,1.441,0,0,1,.3.459,1.454,1.454,0,0,1,.115.545,1.943,1.943,0,0,1-.029.287.958.958,0,0,1-.086.258,1.085,1.085,0,0,1-.129.258l-.172.215a1.326,1.326,0,0,1-.231.172.766.766,0,0,1-.244.129.856.856,0,0,1-.271.086A1.781,1.781,0,0,1,66.283-497.607Z" transform="translate(-64.85 500.462)" fill="#333"/>
        </g>
        <g id="Group_226" data-name="Group 226" transform="translate(2.575 4.988)">
          <path id="Path_665" data-name="Path 665" d="M67.512-461.36a1.421,1.421,0,0,1-.747-1.878h0a1.426,1.426,0,0,1,1.879-.745h0a1.419,1.419,0,0,1,.758,1.878h0a1.445,1.445,0,0,1-1.319.86h0A1.365,1.365,0,0,1,67.512-461.36Zm2.063-5.246a1.413,1.413,0,0,1-1-1.763h0a1.429,1.429,0,0,1,1.763-.989h0a1.436,1.436,0,0,1,1,1.763h0a1.453,1.453,0,0,1-1.39,1.046h0A1.076,1.076,0,0,1,69.574-466.607Zm1.306-5.475a1.415,1.415,0,0,1-1.218-1.605h0a1.424,1.424,0,0,1,1.605-1.233h0A1.445,1.445,0,0,1,72.5-473.3h0a1.432,1.432,0,0,1-1.418,1.233h0A.936.936,0,0,1,70.88-472.082Zm-.86-7.023a1.428,1.428,0,0,1,1.433-1.433h0a1.428,1.428,0,0,1,1.433,1.433h0a1.438,1.438,0,0,1-1.433,1.433h0A1.438,1.438,0,0,1,70.02-479.105Zm-.358-5.432a1.423,1.423,0,0,1,1.218-1.605h0a1.436,1.436,0,0,1,1.618,1.218h0a1.437,1.437,0,0,1-1.231,1.62h0a.817.817,0,0,1-.186.014h0A1.413,1.413,0,0,1,69.662-484.538Zm-1.089-5.318a1.428,1.428,0,0,1,.989-1.763h0a1.427,1.427,0,0,1,1.763,1h0a1.429,1.429,0,0,1-.989,1.763h0a1.782,1.782,0,0,1-.387.043h0A1.423,1.423,0,0,1,68.572-489.855Zm-1.807-5.117h0a1.437,1.437,0,0,1,.747-1.892h0a1.426,1.426,0,0,1,1.878.745h0a1.435,1.435,0,0,1-.745,1.892h0a1.306,1.306,0,0,1-.56.115h0A1.42,1.42,0,0,1,66.765-494.972Z" transform="translate(-66.646 496.982)" fill="#333"/>
        </g>
        <g id="Group_227" data-name="Group 227" transform="translate(0 42.878)">
          <path id="Path_666" data-name="Path 666" d="M66.283-467.685a1.2,1.2,0,0,1-.545-.115,1.325,1.325,0,0,1-.473-.3,1.456,1.456,0,0,1-.3-.473,1.2,1.2,0,0,1-.115-.545,1.507,1.507,0,0,1,.416-1.018,1.471,1.471,0,0,1,1.29-.387.857.857,0,0,1,.271.086.765.765,0,0,1,.244.129c.087.057.159.115.231.172a1.507,1.507,0,0,1,.416,1.018,1.454,1.454,0,0,1-.115.545,1.505,1.505,0,0,1-.3.473A1.51,1.51,0,0,1,66.283-467.685Z" transform="translate(-64.85 470.547)" fill="#333"/>
        </g>
      </g>
      <g id="Group_229" data-name="Group 229" transform="translate(31.067 -494.441)">
        <path id="Path_667" data-name="Path 667" d="M34.761-489.315a1.423,1.423,0,0,1-1.013-.42l-8.328-8.328a1.432,1.432,0,0,1,0-2.027,1.434,1.434,0,0,1,2.027,0l8.328,8.328a1.432,1.432,0,0,1,0,2.027A1.423,1.423,0,0,1,34.761-489.315Z" transform="translate(-25 500.509)" fill="#333"/>
      </g>
      <g id="Group_230" data-name="Group 230" transform="translate(65.74 -494.441)">
        <path id="Path_668" data-name="Path 668" d="M50.623-489.315a1.428,1.428,0,0,1-1.013-.42,1.434,1.434,0,0,1,0-2.027l8.328-8.328a1.434,1.434,0,0,1,2.027,0,1.432,1.432,0,0,1,0,2.027l-8.328,8.328A1.423,1.423,0,0,1,50.623-489.315Z" transform="translate(-49.191 500.509)" fill="#333"/>
      </g>
      <g id="Group_231" data-name="Group 231" transform="translate(31.067 -459.769)">
        <path id="Path_669" data-name="Path 669" d="M26.433-465.124a1.423,1.423,0,0,1-1.013-.42,1.432,1.432,0,0,1,0-2.027l8.328-8.328a1.432,1.432,0,0,1,2.027,0,1.432,1.432,0,0,1,0,2.027l-8.328,8.328A1.423,1.423,0,0,1,26.433-465.124Z" transform="translate(-25 476.319)" fill="#333"/>
      </g>
      <g id="Group_232" data-name="Group 232" transform="translate(65.74 -459.769)">
        <path id="Path_670" data-name="Path 670" d="M58.951-465.124a1.423,1.423,0,0,1-1.013-.42l-8.328-8.328a1.434,1.434,0,0,1,0-2.027,1.432,1.432,0,0,1,2.027,0l8.328,8.328a1.432,1.432,0,0,1,0,2.027A1.423,1.423,0,0,1,58.951-465.124Z" transform="translate(-49.191 476.319)" fill="#333"/>
      </g>
      <g id="Group_233" data-name="Group 233" transform="translate(79.801 -505.908)">
        <path id="Path_671" data-name="Path 671" d="M60.433-497.042A1.433,1.433,0,0,1,59-498.476v-5.733a4.305,4.305,0,0,1,4.3-4.3,1.433,1.433,0,0,1,1.433,1.433,1.433,1.433,0,0,1-1.433,1.433,1.435,1.435,0,0,0-1.433,1.433v5.733A1.433,1.433,0,0,1,60.433-497.042Z" transform="translate(-59 508.509)" fill="#333"/>
      </g>
      <g id="Group_234" data-name="Group 234" transform="translate(79.801 -501.608)">
        <path id="Path_672" data-name="Path 672" d="M63.3-502.642H60.433A1.433,1.433,0,0,1,59-504.076a1.433,1.433,0,0,1,1.433-1.433H63.3a1.433,1.433,0,0,1,1.433,1.433A1.433,1.433,0,0,1,63.3-502.642Z" transform="translate(-59 505.509)" fill="#333"/>
      </g>
      <g id="Group_235" data-name="Group 235" transform="translate(79.801 -448.574)">
        <path id="Path_673" data-name="Path 673" d="M63.3-457.042H61.867A2.87,2.87,0,0,1,59-459.909v-7.167a1.433,1.433,0,0,1,1.433-1.433,1.433,1.433,0,0,1,1.433,1.433v7.167H63.3a1.433,1.433,0,0,1,1.433,1.433A1.433,1.433,0,0,1,63.3-457.042Z" transform="translate(-59 468.509)" fill="#333"/>
      </g>
      <g id="Group_236" data-name="Group 236" transform="translate(78.367 -445.708)">
        <path id="Path_674" data-name="Path 674" d="M63.733-463.642h-4.3A1.433,1.433,0,0,1,58-465.076a1.433,1.433,0,0,1,1.433-1.433h4.3a1.433,1.433,0,0,1,1.433,1.433A1.433,1.433,0,0,1,63.733-463.642Z" transform="translate(-58 466.509)" fill="#333"/>
      </g>
      <g id="Group_237" data-name="Group 237" transform="translate(19.6 -448.574)">
        <path id="Path_675" data-name="Path 675" d="M24.167-457.042H21.3a4.3,4.3,0,0,1-4.3-4.3v-2.867a4.305,4.305,0,0,1,4.3-4.3h2.867a4.305,4.305,0,0,1,4.3,4.3v2.867A4.3,4.3,0,0,1,24.167-457.042Zm-2.867-8.6a1.436,1.436,0,0,0-1.433,1.433v2.867a1.436,1.436,0,0,0,1.433,1.433h2.867a1.436,1.436,0,0,0,1.433-1.433v-2.867a1.436,1.436,0,0,0-1.433-1.433Z" transform="translate(-17 468.509)" fill="#333"/>
      </g>
      <g id="Group_238" data-name="Group 238" transform="translate(23.9 -444.274)">
        <circle id="Ellipse_38" data-name="Ellipse 38" cx="1.5" cy="1.5" r="1.5" transform="translate(0.1 -0.236)" fill="#333"/>
      </g>
      <g id="Group_239" data-name="Group 239" transform="translate(21.033 -504.475)">
        <path id="Path_676" data-name="Path 676" d="M23.017-500.342h-2.15a1.434,1.434,0,0,1-1.433-1.433,1.434,1.434,0,0,1,1.433-1.433h2.15a.717.717,0,0,0,.717-.717.717.717,0,0,0-.717-.717H19.433A1.434,1.434,0,0,1,18-506.076a1.434,1.434,0,0,1,1.433-1.433h3.583a3.588,3.588,0,0,1,3.583,3.583A3.587,3.587,0,0,1,23.017-500.342Z" transform="translate(-18 507.509)" fill="#333"/>
      </g>
      <g id="Group_240" data-name="Group 240" transform="translate(22.467 -501.608)">
        <path id="Path_677" data-name="Path 677" d="M20.433-498.342A1.434,1.434,0,0,1,19-499.776v-4.3a1.434,1.434,0,0,1,1.433-1.433,1.434,1.434,0,0,1,1.433,1.433v4.3A1.434,1.434,0,0,1,20.433-498.342Z" transform="translate(-19 505.509)" fill="#333"/>
      </g>
      <g id="Group_241" data-name="Group 241" transform="translate(26.767 -472.941)">
        <path id="Path_678" data-name="Path 678" d="M30.6-482.642H23.433A1.434,1.434,0,0,1,22-484.076a1.434,1.434,0,0,1,1.433-1.433H30.6a1.434,1.434,0,0,1,1.433,1.433A1.434,1.434,0,0,1,30.6-482.642Z" transform="translate(-22 485.509)" fill="#333"/>
      </g>
      <g id="Group_242" data-name="Group 242" transform="translate(18.167 -477.241)">
        <path id="Path_679" data-name="Path 679" d="M21.733-477.042A5.739,5.739,0,0,1,16-482.776a5.74,5.74,0,0,1,5.733-5.733,5.74,5.74,0,0,1,5.733,5.733A5.739,5.739,0,0,1,21.733-477.042Zm0-8.6a2.87,2.87,0,0,0-2.867,2.867,2.87,2.87,0,0,0,2.867,2.867,2.87,2.87,0,0,0,2.867-2.867A2.87,2.87,0,0,0,21.733-485.642Z" transform="translate(-16 488.509)" fill="#333"/>
      </g>
      <g id="Group_243" data-name="Group 243" transform="translate(71.201 -472.941)">
        <path id="Path_680" data-name="Path 680" d="M61.6-482.642H54.433A1.433,1.433,0,0,1,53-484.076a1.433,1.433,0,0,1,1.433-1.433H61.6a1.433,1.433,0,0,1,1.433,1.433A1.433,1.433,0,0,1,61.6-482.642Z" transform="translate(-53 485.509)" fill="#333"/>
      </g>
      <g id="Group_244" data-name="Group 244" transform="translate(78.367 -477.241)">
        <path id="Path_681" data-name="Path 681" d="M63.733-477.042A5.739,5.739,0,0,1,58-482.776a5.74,5.74,0,0,1,5.733-5.733,5.74,5.74,0,0,1,5.733,5.733A5.739,5.739,0,0,1,63.733-477.042Zm0-8.6a2.87,2.87,0,0,0-2.867,2.867,2.87,2.87,0,0,0,2.867,2.867,2.87,2.87,0,0,0,2.867-2.867A2.87,2.87,0,0,0,63.733-485.642Z" transform="translate(-58 488.509)" fill="#333"/>
      </g>
      <g id="Group_245" data-name="Group 245" transform="translate(52.567 -498.742)">
        <path id="Path_682" data-name="Path 682" d="M41.433-493.476A1.433,1.433,0,0,1,40-494.909v-7.167a1.433,1.433,0,0,1,1.433-1.433,1.433,1.433,0,0,1,1.433,1.433v7.167A1.433,1.433,0,0,1,41.433-493.476Z" transform="translate(-40 503.509)" fill="#333"/>
      </g>
      <g id="Group_246" data-name="Group 246" transform="translate(48.267 -507.342)">
        <path id="Path_683" data-name="Path 683" d="M42.733-498.042A5.739,5.739,0,0,1,37-503.776a5.74,5.74,0,0,1,5.733-5.733,5.74,5.74,0,0,1,5.733,5.733A5.739,5.739,0,0,1,42.733-498.042Zm0-8.6a2.87,2.87,0,0,0-2.867,2.867,2.87,2.87,0,0,0,2.867,2.867,2.87,2.87,0,0,0,2.867-2.867A2.87,2.87,0,0,0,42.733-506.642Z" transform="translate(-37 509.509)" fill="#333"/>
      </g>
      <g id="Group_247" data-name="Group 247" transform="translate(52.567 -454.308)">
        <path id="Path_684" data-name="Path 684" d="M41.433-462.476A1.433,1.433,0,0,1,40-463.909v-7.167a1.433,1.433,0,0,1,1.433-1.433,1.433,1.433,0,0,1,1.433,1.433v7.167A1.433,1.433,0,0,1,41.433-462.476Z" transform="translate(-40 472.509)" fill="#333"/>
      </g>
      <g id="Group_248" data-name="Group 248" transform="translate(48.267 -447.141)">
        <path id="Path_685" data-name="Path 685" d="M42.733-456.042A5.739,5.739,0,0,1,37-461.776a5.74,5.74,0,0,1,5.733-5.733,5.74,5.74,0,0,1,5.733,5.733A5.739,5.739,0,0,1,42.733-456.042Zm0-8.6a2.87,2.87,0,0,0-2.867,2.867,2.87,2.87,0,0,0,2.867,2.867,2.87,2.87,0,0,0,2.867-2.867A2.87,2.87,0,0,0,42.733-464.642Z" transform="translate(-37 467.509)" fill="#333"/>
      </g>
    </g>
  </g>
</svg>
