<svg xmlns="http://www.w3.org/2000/svg" xmlns:xlink="http://www.w3.org/1999/xlink" width="113.185" height="116.223" viewBox="0 0 113.185 116.223">
  <defs>
    <clipPath id="clip-path">
      <path id="bgicon" d="M90.978,15.348c-27-26.671-50-14.541-54,5.778S-4.2,45.5.392,69.5s54.586,9.75,54.586,31.5,57.806,21,57.806-7.5S117.978,42.018,90.978,15.348Z" fill="rgba(255,255,255,0.2)"/>
    </clipPath>
  </defs>
  <g id="Group_340" data-name="Group 340" transform="translate(-1287.953 -1540)">
    <g id="bgicon-2" data-name="bgicon" transform="translate(1287.953 1540)">
      <g id="Group_1" data-name="Group 1" transform="translate(0 0)">
        <path id="bgicon-3" data-name="bgicon" d="M90.978,15.348c-27-26.671-50-14.541-54,5.778S-4.2,45.5.392,69.5s54.586,9.75,54.586,31.5,57.806,21,57.806-7.5S117.978,42.018,90.978,15.348Z" fill="rgba(255,255,255,0.2)"/>
        <g id="Mask_Group_3" data-name="Mask Group 3" clip-path="url(#clip-path)">
          <g id="Color_Blue" data-name="Color/Blue" opacity="0.2">
            <rect id="Rectangle" width="114" height="117" fill="#459eff"/>
          </g>
        </g>
      </g>
    </g>
    <g id="Group_287" data-name="Group 287" transform="translate(1711.953 1681.509)">
      <g id="Group_275" data-name="Group 275" transform="translate(-410 -65.317)">
        <path id="Path_710" data-name="Path 710" d="M-358.6-74.624h-43.133A8.279,8.279,0,0,1-410-82.893v-1.654a4.968,4.968,0,0,1,4.962-4.962h29.77a1.656,1.656,0,0,1,1.169.485l1.169,1.169h11.861l1.169-1.169a1.65,1.65,0,0,1,1.8-.359,1.656,1.656,0,0,1,1.02,1.528v9.923a7.445,7.445,0,0,0,.1,1.35,1.653,1.653,0,0,1-.352,1.361A1.656,1.656,0,0,1-358.6-74.624ZM-405.038-86.2a1.657,1.657,0,0,0-1.654,1.654v1.654a4.967,4.967,0,0,0,4.962,4.962h41.347v-6.615h-13.231a1.649,1.649,0,0,1-1.169-.485l-1.169-1.169Z" transform="translate(410 89.509)" fill="#333"/>
      </g>
      <g id="Group_276" data-name="Group 276" transform="translate(-337.363 -65.316)">
        <path id="Path_711" data-name="Path 711" d="M-360.986-74.624h-3.44a1.656,1.656,0,0,1-1.273-.6,1.653,1.653,0,0,1-.352-1.361,7.445,7.445,0,0,0,.1-1.35v-9.923a1.654,1.654,0,0,1,1.654-1.654h6.615a4.968,4.968,0,0,1,4.962,4.962v1.654A8.279,8.279,0,0,1-360.986-74.624Zm-1.654-3.308h1.654a4.967,4.967,0,0,0,4.962-4.962v-1.654a1.657,1.657,0,0,0-1.654-1.654h-4.962Z" transform="translate(366.08 89.509)" fill="#333"/>
      </g>
      <g id="Group_277" data-name="Group 277" transform="translate(-396.769 -109.97)">
        <path id="Path_712" data-name="Path 712" d="M-361.712-75.162h-38.634A1.654,1.654,0,0,1-402-76.816v-38.039a1.654,1.654,0,0,1,1.654-1.654h5.061a1.652,1.652,0,0,1,1.644,1.477,12.95,12.95,0,0,0,1.188,4.2,13.284,13.284,0,0,0,11.954,7.558,13.278,13.278,0,0,0,11.951-7.555,12.915,12.915,0,0,0,1.191-4.2,1.652,1.652,0,0,1,1.644-1.477h21.6a1.654,1.654,0,0,1,1.654,1.654v37.278a1.653,1.653,0,0,1-.827,1.432,1.652,1.652,0,0,1-1.652,0,4.911,4.911,0,0,0-2.482-.673h-9.923a4.989,4.989,0,0,0-3.278,1.247A1.657,1.657,0,0,1-361.712-75.162Zm-36.98-3.308h36.4a8.281,8.281,0,0,1,4.948-1.654h9.923a8.173,8.173,0,0,1,1.654.17V-113.2H-364.3a16.283,16.283,0,0,1-1.265,3.789A16.6,16.6,0,0,1-380.5-99.97a16.6,16.6,0,0,1-14.941-9.445A16.274,16.274,0,0,1-396.7-113.2h-1.99Z" transform="translate(402 116.509)" fill="#333"/>
      </g>
      <g id="Group_278" data-name="Group 278" transform="translate(-360.384 -73.585)">
        <path id="Path_713" data-name="Path 713" d="M-366.769-61.432a13.262,13.262,0,0,1-13.082-11.346A10.351,10.351,0,0,1-380-74.663V-86.24a8.271,8.271,0,0,1,2.81-6.2,8.313,8.313,0,0,1,5.459-2.066h9.923a8.291,8.291,0,0,1,4.133,1.115,8.268,8.268,0,0,1,4.136,7.155v11.577a10.671,10.671,0,0,1-.16,1.96A13.241,13.241,0,0,1-366.769-61.432Zm-4.962-29.77a4.989,4.989,0,0,0-3.278,1.247,4.951,4.951,0,0,0-1.684,3.715v11.577a7.445,7.445,0,0,0,.1,1.35,9.961,9.961,0,0,0,9.819,8.574,9.94,9.94,0,0,0,9.807-8.5,7.75,7.75,0,0,0,.116-1.424V-86.24a4.957,4.957,0,0,0-2.479-4.288,4.911,4.911,0,0,0-2.482-.673Z" transform="translate(380 94.509)" fill="#333"/>
      </g>
      <g id="Group_279" data-name="Group 279" transform="translate(-348.807 -66.97)">
        <path id="Path_714" data-name="Path 714" d="M-371.346-82.24A1.654,1.654,0,0,1-373-83.894v-4.962a1.654,1.654,0,0,1,1.654-1.654,1.654,1.654,0,0,1,1.654,1.654v4.962A1.654,1.654,0,0,1-371.346-82.24Z" transform="translate(373 90.509)" fill="#333"/>
      </g>
      <g id="Group_280" data-name="Group 280" transform="translate(-396.769 -116.586)">
        <path id="Path_715" data-name="Path 715" d="M-340.807-66.228a1.655,1.655,0,0,1-.963-.309,1.655,1.655,0,0,1-.691-1.345v-1.358a4.957,4.957,0,0,0-2.479-4.288,4.911,4.911,0,0,0-2.482-.673h-9.923a4.989,4.989,0,0,0-3.278,1.247,1.657,1.657,0,0,1-1.088.407h-38.634A1.654,1.654,0,0,1-402-74.2V-112.24a1.654,1.654,0,0,1,1.654-1.654h5.061a1.652,1.652,0,0,1,1.644,1.477,12.95,12.95,0,0,0,1.188,4.2,13.284,13.284,0,0,0,11.954,7.558,13.278,13.278,0,0,0,11.951-7.555,12.915,12.915,0,0,0,1.191-4.2,11.946,11.946,0,0,0,.089-1.477,11.325,11.325,0,0,0-.142-1.862,12.158,12.158,0,0,0-.619-2.534,1.659,1.659,0,0,1,.2-1.515,1.654,1.654,0,0,1,1.355-.7h24.014a6.623,6.623,0,0,1,6.615,6.615v41.347a6.574,6.574,0,0,1-4.426,6.23A1.664,1.664,0,0,1-340.807-66.228Zm-16.539-11.281h9.923a8.291,8.291,0,0,1,4.133,1.115,8.271,8.271,0,0,1,3.882,5.125,3.316,3.316,0,0,0,.255-1.278v-41.347a3.311,3.311,0,0,0-3.308-3.308H-364.3q.1.474.16.951a14.37,14.37,0,0,1,.18,2.357,15.012,15.012,0,0,1-.112,1.859,16.168,16.168,0,0,1-1.488,5.238A16.6,16.6,0,0,1-380.5-97.355a16.6,16.6,0,0,1-14.941-9.445,16.274,16.274,0,0,1-1.262-3.786h-1.99v34.731h36.4A8.281,8.281,0,0,1-357.346-77.509Z" transform="translate(402 120.509)" fill="#333"/>
      </g>
      <g id="Group_281" data-name="Group 281" transform="translate(-376.923 -96.739)">
        <path id="Path_716" data-name="Path 716" d="M-360.23-82.047a1.654,1.654,0,0,1-1.654-1.654v-17.306a4.2,4.2,0,0,0-4.194-4.194,4.167,4.167,0,0,0-2.965,1.229l-8.15,8.152a7.451,7.451,0,0,1-5.3,2.2,7.509,7.509,0,0,1-7.5-7.5v-5.731a1.654,1.654,0,0,1,1.654-1.654,1.654,1.654,0,0,1,1.654,1.654v5.731a4.2,4.2,0,0,0,4.194,4.193,4.226,4.226,0,0,0,2.965-1.227l8.15-8.152a7.453,7.453,0,0,1,5.3-2.2,7.511,7.511,0,0,1,7.5,7.5V-83.7A1.654,1.654,0,0,1-360.23-82.047Z" transform="translate(390 108.509)" fill="#333"/>
      </g>
      <g id="Group_282" data-name="Group 282" transform="translate(-380.23 -116.586)">
        <path id="Path_717" data-name="Path 717" d="M-386.211-107.278h-4.135A1.654,1.654,0,0,1-392-108.932a1.654,1.654,0,0,1,1.654-1.654h4.135a.827.827,0,0,0,.827-.827.827.827,0,0,0-.827-.827h-1.654A4.139,4.139,0,0,1-392-116.374a4.14,4.14,0,0,1,4.135-4.135h4.135a1.654,1.654,0,0,1,1.654,1.654,1.654,1.654,0,0,1-1.654,1.654h-4.135a.827.827,0,0,0-.827.827.827.827,0,0,0,.827.827h1.654a4.14,4.14,0,0,1,4.135,4.135A4.139,4.139,0,0,1-386.211-107.278Z" transform="translate(392 120.509)" fill="#333"/>
      </g>
      <g id="Group_283" data-name="Group 283" transform="translate(-376.923 -106.663)">
        <path id="Path_718" data-name="Path 718" d="M-388.346-107.894A1.654,1.654,0,0,1-390-109.547v-3.308a1.654,1.654,0,0,1,1.654-1.654,1.654,1.654,0,0,1,1.654,1.654v3.308A1.654,1.654,0,0,1-388.346-107.894Z" transform="translate(390 114.509)" fill="#333"/>
      </g>
      <g id="Group_284" data-name="Group 284" transform="translate(-376.923 -119.894)">
        <path id="Path_719" data-name="Path 719" d="M-388.346-115.894A1.654,1.654,0,0,1-390-117.547v-3.308a1.654,1.654,0,0,1,1.654-1.654,1.654,1.654,0,0,1,1.654,1.654v3.308A1.654,1.654,0,0,1-388.346-115.894Z" transform="translate(390 122.509)" fill="#333"/>
      </g>
      <g id="Group_285" data-name="Group 285" transform="translate(-403.385 -116.586)">
        <path id="Path_720" data-name="Path 720" d="M-363-64.278H-376.23a1.649,1.649,0,0,1-1.169-.485l-1.169-1.169h-20.816A6.622,6.622,0,0,1-406-72.547v-41.347a6.623,6.623,0,0,1,6.615-6.615h7.475a1.654,1.654,0,0,1,1.355.7,1.659,1.659,0,0,1,.2,1.515,11.931,11.931,0,0,0-.61,2.486l-.026.184a1.964,1.964,0,0,1-.026.263,10.245,10.245,0,0,0-.1,1.464,11.8,11.8,0,0,0,.086,1.449,1.649,1.649,0,0,1-.4,1.3,1.655,1.655,0,0,1-1.24.559h-3.407v34.731h36.98a1.654,1.654,0,0,1,1.546,1.07A1.655,1.655,0,0,1-358-72.959a4.957,4.957,0,0,0-1.689,3.72v1.654a1.65,1.65,0,0,1-.485,1.169l-1.654,1.654A1.649,1.649,0,0,1-363-64.278Zm-12.546-3.308h11.861l.685-.685v-.969a8.257,8.257,0,0,1,.693-3.308h-35.424a1.654,1.654,0,0,1-1.654-1.654V-112.24a1.654,1.654,0,0,1,1.654-1.654h3.308a13.571,13.571,0,0,1,.119-1.849c.008-.132.025-.261.045-.39.05-.369.111-.723.179-1.068h-5.3a3.311,3.311,0,0,0-3.308,3.308v41.347a3.311,3.311,0,0,0,3.308,3.308h21.5a1.656,1.656,0,0,1,1.169.485Z" transform="translate(406 120.509)" fill="#333"/>
      </g>
      <g id="Group_286" data-name="Group 286" transform="translate(-391.807 -126.509)">
        <path id="Path_721" data-name="Path 721" d="M-382.461-93.432a16.6,16.6,0,0,1-14.941-9.445,16.251,16.251,0,0,1-1.488-5.263A14.871,14.871,0,0,1-399-109.97a13.571,13.571,0,0,1,.119-1.849c.008-.132.025-.261.045-.39a15.767,15.767,0,0,1,.8-3.288,16.5,16.5,0,0,1,15.579-11.011,16.5,16.5,0,0,1,15.586,11.033,15.3,15.3,0,0,1,.772,3.149,14.37,14.37,0,0,1,.18,2.357,15.012,15.012,0,0,1-.112,1.859,16.168,16.168,0,0,1-1.488,5.238A16.6,16.6,0,0,1-382.461-93.432Zm0-29.77a13.194,13.194,0,0,0-12.464,8.813,12.054,12.054,0,0,0-.617,2.507l-.026.184a1.964,1.964,0,0,1-.026.263,10.245,10.245,0,0,0-.1,1.464,11.8,11.8,0,0,0,.086,1.449,13,13,0,0,0,1.191,4.224,13.284,13.284,0,0,0,11.954,7.558,13.278,13.278,0,0,0,11.951-7.555,12.915,12.915,0,0,0,1.191-4.2,11.946,11.946,0,0,0,.089-1.477,11.325,11.325,0,0,0-.142-1.862,12.158,12.158,0,0,0-.619-2.534A13.2,13.2,0,0,0-382.461-123.2Z" transform="translate(399 126.509)" fill="#333"/>
      </g>
    </g>
  </g>
</svg>
