<svg xmlns="http://www.w3.org/2000/svg" xmlns:xlink="http://www.w3.org/1999/xlink" width="114" height="117" viewBox="0 0 114 117">
  <defs>
    <clipPath id="clip-path">
      <path id="bgicon" d="M90.978,15.348c-27-26.671-50-14.541-54,5.778S-4.2,45.5.392,69.5s54.586,9.75,54.586,31.5,57.806,21,57.806-7.5S117.978,42.018,90.978,15.348Z" fill="rgba(255,255,255,0.2)"/>
    </clipPath>
  </defs>
  <g id="Group_341" data-name="Group 341" transform="translate(-279.953 -2115)">
    <g id="Icon" transform="translate(279.453 2115)">
      <g id="bgicon-2" data-name="bgicon" transform="translate(0.5)">
        <g id="Group_1" data-name="Group 1" transform="translate(0 0)">
          <path id="bgicon-3" data-name="bgicon" d="M90.978,15.348c-27-26.671-50-14.541-54,5.778S-4.2,45.5.392,69.5s54.586,9.75,54.586,31.5,57.806,21,57.806-7.5S117.978,42.018,90.978,15.348Z" fill="rgba(255,255,255,0.2)"/>
          <g id="Mask_Group_3" data-name="Mask Group 3" clip-path="url(#clip-path)">
            <g id="Color_Blue" data-name="Color/Blue" opacity="0.2">
              <rect id="Rectangle" width="114" height="117" fill="#459eff"/>
            </g>
          </g>
        </g>
      </g>
    </g>
    <g id="Group_303" data-name="Group 303" transform="translate(288.953 2125)">
      <g id="Group_288" data-name="Group 288" transform="translate(9.256 22.282)">
        <path id="Path_723" data-name="Path 723" d="M58.476,61.591H19.4a11.251,11.251,0,0,1-1.612-.13l-.358-.057a9.643,9.643,0,0,1-1.444-.342,2.214,2.214,0,0,1-.376-.135,9.2,9.2,0,0,1-1.161-.471l-.212-.112a13.065,13.065,0,0,1-1.324-.786c-.187-.14-.23-.177-.282-.213a9.674,9.674,0,0,1-.985-.814c-.085-.072-.163-.145-.254-.234a13.149,13.149,0,0,1-.966-1.091,4,4,0,0,1-.3-.425A11.057,11.057,0,0,1,8,50.193V24.63a1.628,1.628,0,0,1,2.524-1.361,5.306,5.306,0,0,0,2.931.873H14.4a5.461,5.461,0,0,0,5.44-5.088l.067-.951a1.629,1.629,0,0,1,3.25.221A5.448,5.448,0,0,0,28.6,24.141a5.461,5.461,0,0,0,5.455-5.455V17.628a1.628,1.628,0,1,1,3.256,0,6.513,6.513,0,1,0,13.026,0,1.628,1.628,0,1,1,3.256,0v1.058a5.461,5.461,0,0,0,5.455,5.455,5.448,5.448,0,0,0,5.442-5.818,1.629,1.629,0,0,1,3.25-.221l.067.944a5.462,5.462,0,0,0,5.44,5.095h.944a5.306,5.306,0,0,0,2.931-.873,1.628,1.628,0,0,1,2.524,1.361V37.167A1.628,1.628,0,0,1,78.015,38.8H64.989A4.891,4.891,0,0,0,60.1,43.68V59.963A1.628,1.628,0,0,1,58.476,61.591ZM16.893,57.932l.021.008a6.661,6.661,0,0,0,1.027.249l.308.047a7.985,7.985,0,0,0,1.148.1h37.45V43.68a8.15,8.15,0,0,1,8.141-8.141h11.4V27.114a8.631,8.631,0,0,1-2.2.283h-.944a8.723,8.723,0,0,1-7.1-3.665,8.623,8.623,0,0,1-.734.9,8.711,8.711,0,0,1-13.7-1.252,9.761,9.761,0,0,1-15.781,0,8.707,8.707,0,0,1-14.436.352A8.724,8.724,0,0,1,14.4,27.4h-.944a8.63,8.63,0,0,1-2.2-.283V50.193a8,8,0,0,0,1.571,4.781l-1.154,1.184,1.283-1a10.114,10.114,0,0,0,.718.821,1.346,1.346,0,0,1,.143.129,7.023,7.023,0,0,0,.669.567c.1.065.218.158.361.275.163.1.456.283.778.451l.169.09a5.852,5.852,0,0,0,.886.366A1.661,1.661,0,0,1,16.893,57.932Zm-.163-.039h0Z" transform="translate(-8 -16)" fill="#231f20"/>
      </g>
      <g id="Group_289" data-name="Group 289" transform="translate(33.68 64.617)">
        <path id="Path_724" data-name="Path 724" d="M44.167,58.282H24.628a1.626,1.626,0,0,1-1.615-1.83l1.628-13.026A1.627,1.627,0,0,1,26.256,42H42.539a1.627,1.627,0,0,1,1.615,1.426l1.628,13.026a1.626,1.626,0,0,1-1.615,1.83ZM26.473,55.026H42.322L41.1,45.256H27.694Z" transform="translate(-23 -42)" fill="#231f20"/>
      </g>
      <g id="Group_290" data-name="Group 290" transform="translate(28.795 77.643)">
        <path id="Path_725" data-name="Path 725" d="M50.937,53.256H21.628a1.628,1.628,0,1,1,0-3.256H50.937a1.628,1.628,0,1,1,0,3.256Z" transform="translate(-20 -50)" fill="#231f20"/>
      </g>
      <g id="Group_291" data-name="Group 291" transform="translate(9.256 51.591)">
        <path id="Path_726" data-name="Path 726" d="M58.476,37.256H9.628a1.628,1.628,0,1,1,0-3.256H58.476a1.628,1.628,0,1,1,0,3.256Z" transform="translate(-8 -34)" fill="#231f20"/>
      </g>
      <g id="Group_292" data-name="Group 292" transform="translate(43.103 58.281)">
        <circle id="Ellipse_39" data-name="Ellipse 39" cx="1.686" cy="1.686" r="1.686" transform="translate(0 0)" fill="#231f20"/>
      </g>
      <g id="Group_293" data-name="Group 293" transform="translate(6 6)">
        <path id="Path_727" data-name="Path 727" d="M15.655,33.68h-.944A8.75,8.75,0,0,1,6,24.969v-.358a9.343,9.343,0,0,1,.156-1.669,1.476,1.476,0,0,1,.046-.191L9.556,11.777A8.077,8.077,0,0,1,17.333,6h6.578a1.63,1.63,0,0,1,1.625,1.737L24.347,25.554A8.727,8.727,0,0,1,15.655,33.68ZM9.346,23.6a6.1,6.1,0,0,0-.09,1.006v.358a5.415,5.415,0,0,0,2.507,4.572,5.328,5.328,0,0,0,2.947.883h.944a5.461,5.461,0,0,0,5.44-5.088L22.17,9.256H17.333a4.843,4.843,0,0,0-4.662,3.467Z" transform="translate(-6 -6)" fill="#231f20"/>
      </g>
      <g id="Group_294" data-name="Group 294" transform="translate(21.142 6)">
        <path id="Path_728" data-name="Path 728" d="M24.011,33.68a8.705,8.705,0,0,1-8.692-9.294L16.443,7.519A1.63,1.63,0,0,1,18.068,6H31.094a1.628,1.628,0,0,1,1.628,1.628V24.969A8.72,8.72,0,0,1,24.011,33.68ZM19.591,9.256,18.57,24.6a5.448,5.448,0,0,0,5.442,5.819,5.461,5.461,0,0,0,5.455-5.455V9.256Z" transform="translate(-15.3 -6)" fill="#231f20"/>
      </g>
      <g id="Group_295" data-name="Group 295" transform="translate(35.308 6)">
        <path id="Path_729" data-name="Path 729" d="M33.769,33.68A9.779,9.779,0,0,1,24,23.911V7.628A1.628,1.628,0,0,1,25.628,6H41.911a1.628,1.628,0,0,1,1.628,1.628V23.911A9.779,9.779,0,0,1,33.769,33.68ZM27.256,9.256V23.911a6.513,6.513,0,1,0,13.026,0V9.256Z" transform="translate(-24 -6)" fill="#231f20"/>
      </g>
      <g id="Group_296" data-name="Group 296" transform="translate(51.591 6)">
        <path id="Path_730" data-name="Path 730" d="M42.711,33.68A8.72,8.72,0,0,1,34,24.969V7.628A1.628,1.628,0,0,1,35.628,6H48.654a1.63,1.63,0,0,1,1.625,1.519L51.4,24.388a8.705,8.705,0,0,1-8.692,9.292ZM37.256,9.256V24.969a5.461,5.461,0,0,0,5.455,5.455,5.448,5.448,0,0,0,5.442-5.818v0L47.132,9.256Z" transform="translate(-34 -6)" fill="#231f20"/>
      </g>
      <g id="Group_297" data-name="Group 297" transform="translate(64.616 6)">
        <path id="Path_731" data-name="Path 731" d="M52.828,33.68h-.944a8.728,8.728,0,0,1-8.692-8.133L42,7.737A1.63,1.63,0,0,1,43.628,6h6.578a8.079,8.079,0,0,1,7.778,5.782l3.353,10.969a1.475,1.475,0,0,1,.046.191,9.342,9.342,0,0,1,.156,1.669v.358a8.661,8.661,0,0,1-4.005,7.314A8.557,8.557,0,0,1,52.828,33.68ZM45.369,9.256l1.075,16.072a5.462,5.462,0,0,0,5.44,5.095h.944a5.306,5.306,0,0,0,2.931-.873,5.421,5.421,0,0,0,2.524-4.582v-.358a6.1,6.1,0,0,0-.09-1.006L54.87,12.728a4.845,4.845,0,0,0-4.663-3.471Z" transform="translate(-42 -6)" fill="#231f20"/>
      </g>
      <g id="Group_298" data-name="Group 298" transform="translate(58.104 41.821)">
        <path id="Path_732" data-name="Path 732" d="M62.424,76.847H46.141A8.15,8.15,0,0,1,38,68.706V36.141A8.15,8.15,0,0,1,46.141,28H62.424a8.15,8.15,0,0,1,8.141,8.141V68.706A8.15,8.15,0,0,1,62.424,76.847ZM46.141,31.256a4.891,4.891,0,0,0-4.885,4.885V68.706a4.891,4.891,0,0,0,4.885,4.885H62.424a4.891,4.891,0,0,0,4.885-4.885V36.141a4.891,4.891,0,0,0-4.885-4.885Z" transform="translate(-38 -28)" fill="#231f20"/>
      </g>
      <g id="Group_299" data-name="Group 299" transform="translate(72.616 81.049)">
        <circle id="Ellipse_40" data-name="Ellipse 40" cx="1.686" cy="1.686" r="1.686" transform="translate(0 0)" fill="#231f20"/>
      </g>
      <g id="Group_300" data-name="Group 300" transform="translate(67.873 41.821)">
        <path id="Path_733" data-name="Path 733" d="M53.77,32.885H47.257a1.621,1.621,0,0,1-1.151-.477l-1.628-1.628A1.628,1.628,0,0,1,45.628,28H55.4a1.628,1.628,0,0,1,1.151,2.779l-1.628,1.628A1.621,1.621,0,0,1,53.77,32.885Z" transform="translate(-44 -28)" fill="#231f20"/>
      </g>
      <g id="Group_301" data-name="Group 301" transform="translate(66.245 61.36)">
        <path id="Path_734" data-name="Path 734" d="M54.4,54.654H47.885A4.891,4.891,0,0,1,43,49.769V41.628A1.628,1.628,0,0,1,44.628,40H57.654a1.628,1.628,0,0,1,1.628,1.628v8.141A4.891,4.891,0,0,1,54.4,54.654Zm-8.141-11.4v6.513A1.63,1.63,0,0,0,47.885,51.4H54.4a1.63,1.63,0,0,0,1.628-1.628V43.256Z" transform="translate(-43 -40)" fill="#231f20"/>
      </g>
      <g id="Group_302" data-name="Group 302" transform="translate(69.72 56.694)">
        <path id="Path_735" data-name="Path 735" d="M53.057,44.839H46.544a1.409,1.409,0,0,1-1.41-1.41V41.8a4.667,4.667,0,1,1,9.333,0v1.628A1.409,1.409,0,0,1,53.057,44.839Zm-5.1-2.82h3.693V41.8a1.846,1.846,0,1,0-3.693,0Z" transform="translate(-45.134 -37.134)" fill="#231f20"/>
      </g>
    </g>
  </g>
</svg>
