<svg xmlns="http://www.w3.org/2000/svg" xmlns:xlink="http://www.w3.org/1999/xlink" width="113.185" height="116.223" viewBox="0 0 113.185 116.223">
  <defs>
    <clipPath id="clip-path">
      <path id="bgicon" d="M90.978,15.348c-27-26.671-50-14.541-54,5.778S-4.2,45.5.392,69.5s54.586,9.75,54.586,31.5,57.806,21,57.806-7.5S117.978,42.018,90.978,15.348Z" fill="rgba(255,255,255,0.2)"/>
    </clipPath>
  </defs>
  <g id="Group_343" data-name="Group 343" transform="translate(-1287.953 -2112)">
    <g id="bgicon-2" data-name="bgicon" transform="translate(1287.953 2112)">
      <g id="Group_1" data-name="Group 1" transform="translate(0 0)">
        <path id="bgicon-3" data-name="bgicon" d="M90.978,15.348c-27-26.671-50-14.541-54,5.778S-4.2,45.5.392,69.5s54.586,9.75,54.586,31.5,57.806,21,57.806-7.5S117.978,42.018,90.978,15.348Z" fill="rgba(255,255,255,0.2)"/>
        <g id="Mask_Group_3" data-name="Mask Group 3" clip-path="url(#clip-path)">
          <g id="Color_Blue" data-name="Color/Blue" opacity="0.2">
            <rect id="Rectangle" width="114" height="117" fill="#459eff"/>
          </g>
        </g>
      </g>
    </g>
    <g id="Group_274" data-name="Group 274" transform="translate(1186.953 2638.009)">
      <g id="Group_250" data-name="Group 250" transform="translate(149.321 -485.046)">
        <path id="Path_686" data-name="Path 686" d="M143.113-475.537A8.123,8.123,0,0,1,135-483.65V-486.9a8.123,8.123,0,0,1,8.113-8.113,8.123,8.123,0,0,1,8.113,8.113v3.245A8.123,8.123,0,0,1,143.113-475.537Zm0-16.227a4.874,4.874,0,0,0-4.868,4.868v3.245a4.873,4.873,0,0,0,4.868,4.868,4.873,4.873,0,0,0,4.868-4.868V-486.9A4.874,4.874,0,0,0,143.113-491.764Z" transform="translate(-135 495.009)" fill="#333"/>
      </g>
      <g id="Group_251" data-name="Group 251" transform="translate(143.674 -468.82)">
        <path id="Path_687" data-name="Path 687" d="M145.28-465.537a20.836,20.836,0,0,1-13.152-4.591,1.624,1.624,0,0,1-.578-1.584l.488-2.45a13.551,13.551,0,0,1,13.241-10.847,13.533,13.533,0,0,1,8.556,3.062,13.478,13.478,0,0,1,4.685,7.787l.488,2.449a1.624,1.624,0,0,1-.578,1.584A20.836,20.836,0,0,1,145.28-465.537Zm-10.348-6.538a17.616,17.616,0,0,0,10.348,3.292,17.616,17.616,0,0,0,10.348-3.292l-.289-1.452a10.247,10.247,0,0,0-3.559-5.91,10.283,10.283,0,0,0-6.5-2.327,10.3,10.3,0,0,0-10.059,8.24Z" transform="translate(-131.52 485.009)" fill="#333"/>
      </g>
      <g id="Group_252" data-name="Group 252" transform="translate(136.34 -491.537)">
        <path id="Path_688" data-name="Path 688" d="M148.095-456.82a20.836,20.836,0,0,1-13.152-4.591,21.037,21.037,0,0,1-7.943-16.5,21.119,21.119,0,0,1,21.095-21.095,21.119,21.119,0,0,1,21.095,21.095,21.038,21.038,0,0,1-7.943,16.5A20.836,20.836,0,0,1,148.095-456.82Zm0-38.944a17.87,17.87,0,0,0-17.849,17.849,17.813,17.813,0,0,0,6.726,13.971,17.62,17.62,0,0,0,11.123,3.878,17.62,17.62,0,0,0,11.123-3.878,17.813,17.813,0,0,0,6.726-13.971A17.87,17.87,0,0,0,148.095-495.764Z" transform="translate(-127 499.009)" fill="#333"/>
      </g>
      <g id="Group_253" data-name="Group 253" transform="translate(128.227 -499.65)">
        <path id="Path_689" data-name="Path 689" d="M151.208-445.593A28.849,28.849,0,0,1,133-451.948,29.137,29.137,0,0,1,122-474.8a29.241,29.241,0,0,1,29.208-29.208A29.241,29.241,0,0,1,180.416-474.8a29.137,29.137,0,0,1-11,22.854A28.849,28.849,0,0,1,151.208-445.593Zm0-55.17A25.993,25.993,0,0,0,125.245-474.8a25.9,25.9,0,0,0,9.781,20.319,25.622,25.622,0,0,0,16.181,5.644,25.622,25.622,0,0,0,16.181-5.644A25.9,25.9,0,0,0,177.17-474.8,25.993,25.993,0,0,0,151.208-500.764Z" transform="translate(-122 504.009)" fill="#333"/>
      </g>
      <g id="Group_254" data-name="Group 254" transform="translate(178.529 -511.009)">
        <path id="Path_690" data-name="Path 690" d="M162.736-491.537A9.746,9.746,0,0,1,153-501.273a9.747,9.747,0,0,1,9.736-9.736,9.747,9.747,0,0,1,9.736,9.736A9.746,9.746,0,0,1,162.736-491.537Zm0-16.227a6.5,6.5,0,0,0-6.491,6.491,6.5,6.5,0,0,0,6.491,6.491,6.5,6.5,0,0,0,6.491-6.491A6.5,6.5,0,0,0,162.736-507.764Z" transform="translate(-153 511.009)" fill="#333"/>
      </g>
      <g id="Group_255" data-name="Group 255" transform="translate(178.529 -449.348)">
        <path id="Path_691" data-name="Path 691" d="M162.736-453.537A9.746,9.746,0,0,1,153-463.273a9.747,9.747,0,0,1,9.736-9.736,9.747,9.747,0,0,1,9.736,9.736A9.746,9.746,0,0,1,162.736-453.537Zm0-16.227a6.5,6.5,0,0,0-6.491,6.491,6.5,6.5,0,0,0,6.491,6.491,6.5,6.5,0,0,0,6.491-6.491A6.5,6.5,0,0,0,162.736-469.764Z" transform="translate(-153 473.009)" fill="#333"/>
      </g>
      <g id="Group_256" data-name="Group 256" transform="translate(116.868 -449.348)">
        <path id="Path_692" data-name="Path 692" d="M124.736-453.537A9.746,9.746,0,0,1,115-463.273a9.747,9.747,0,0,1,9.736-9.736,9.747,9.747,0,0,1,9.736,9.736A9.746,9.746,0,0,1,124.736-453.537Zm0-16.227a6.5,6.5,0,0,0-6.491,6.491,6.5,6.5,0,0,0,6.491,6.491,6.5,6.5,0,0,0,6.491-6.491A6.5,6.5,0,0,0,124.736-469.764Z" transform="translate(-115 473.009)" fill="#333"/>
      </g>
      <g id="Group_257" data-name="Group 257" transform="translate(116.868 -511.009)">
        <path id="Path_693" data-name="Path 693" d="M124.736-491.537A9.746,9.746,0,0,1,115-501.273a9.747,9.747,0,0,1,9.736-9.736,9.747,9.747,0,0,1,9.736,9.736A9.746,9.746,0,0,1,124.736-491.537Zm0-16.227a6.5,6.5,0,0,0-6.491,6.491,6.5,6.5,0,0,0,6.491,6.491,6.5,6.5,0,0,0,6.491-6.491A6.5,6.5,0,0,0,124.736-507.764Z" transform="translate(-115 511.009)" fill="#333"/>
      </g>
      <g id="Group_258" data-name="Group 258" transform="translate(116.868 -511.009)">
        <path id="Path_694" data-name="Path 694" d="M124.736-491.537A9.746,9.746,0,0,1,115-501.273a9.747,9.747,0,0,1,9.736-9.736,9.747,9.747,0,0,1,9.736,9.736A9.746,9.746,0,0,1,124.736-491.537Zm0-16.227a6.5,6.5,0,0,0-6.491,6.491,6.5,6.5,0,0,0,6.491,6.491,6.5,6.5,0,0,0,6.491-6.491A6.5,6.5,0,0,0,124.736-507.764Z" transform="translate(-115 511.009)" fill="#333"/>
      </g>
      <g id="Group_259" data-name="Group 259" transform="translate(155.812 -435.911)">
        <path id="Path_695" data-name="Path 695" d="M140.623-453.825A1.622,1.622,0,0,1,139-455.448a1.622,1.622,0,0,1,1.623-1.623,41.777,41.777,0,0,0,23.793-7.372,1.625,1.625,0,0,1,2.259.417,1.624,1.624,0,0,1-.417,2.256A45.014,45.014,0,0,1,140.623-453.825Z" transform="translate(-139 464.728)" fill="#333"/>
      </g>
      <g id="Group_260" data-name="Group 260" transform="translate(138.384 -430.996)">
        <path id="Path_696" data-name="Path 696" d="M128.26-461.7" transform="translate(-128.26 461.699)" fill="#333" stroke="#231f20" stroke-linecap="round" stroke-linejoin="round" stroke-width="2"/>
      </g>
      <g id="Group_261" data-name="Group 261" transform="translate(136.759 -432.619)">
        <path id="Path_697" data-name="Path 697" d="M147.674-455.09h.016a1.617,1.617,0,0,1-1.623-1.623h0a1.617,1.617,0,0,1,1.623-1.623h.015a1.618,1.618,0,0,1,1.608,1.639h0a1.615,1.615,0,0,1-1.623,1.606h-.016Zm-6.7-.519h0a1.625,1.625,0,0,1-1.347-1.85h0a1.607,1.607,0,0,1,1.85-1.363h0a1.609,1.609,0,0,1,1.347,1.85h0a1.619,1.619,0,0,1-1.59,1.379h0C141.149-455.593,141.07-455.609,140.973-455.609Zm-6.556-1.525a1.608,1.608,0,0,1-1.055-2.028h0a1.619,1.619,0,0,1,2.028-1.071h0a1.643,1.643,0,0,1,1.071,2.044h0a1.653,1.653,0,0,1-1.558,1.136h0A1.7,1.7,0,0,1,134.417-457.135Zm-6.249-2.483a1.624,1.624,0,0,1-.746-2.174h0a1.639,1.639,0,0,1,2.176-.746h0a1.645,1.645,0,0,1,.746,2.174h0a1.622,1.622,0,0,1-1.46.909h0A1.591,1.591,0,0,1,128.168-459.617Z" transform="translate(-127.258 462.699)" fill="#333"/>
      </g>
      <g id="Group_262" data-name="Group 262" transform="translate(196.881 -451.393)">
        <path id="Path_698" data-name="Path 698" d="M164.31-474.269" transform="translate(-164.31 474.269)" fill="#333" stroke="#231f20" stroke-linecap="round" stroke-linejoin="round" stroke-width="2"/>
      </g>
      <g id="Group_263" data-name="Group 263" transform="translate(191.965 -496.777)">
        <path id="Path_699" data-name="Path 699" d="M170.561-474.281a1.622,1.622,0,0,1-1.623-1.623,41.778,41.778,0,0,0-7.373-23.793,1.623,1.623,0,0,1,.419-2.255,1.624,1.624,0,0,1,2.255.415,45.019,45.019,0,0,1,7.945,25.633A1.622,1.622,0,0,1,170.561-474.281Z" transform="translate(-161.281 502.238)" fill="#333"/>
      </g>
      <g id="Group_264" data-name="Group 264" transform="translate(195.356 -472.067)">
        <path id="Path_700" data-name="Path 700" d="M164.293-465.088a1.627,1.627,0,0,1-.761-2.174h0a1.637,1.637,0,0,1,2.174-.746h0a1.625,1.625,0,0,1,.763,2.158h-.016a1.618,1.618,0,0,1-1.46.925h0A1.572,1.572,0,0,1,164.293-465.088Zm2.6-5.955a1.628,1.628,0,0,1-1.087-2.028h0a1.625,1.625,0,0,1,2.028-1.071h0a1.629,1.629,0,0,1,1.087,2.028h0a1.647,1.647,0,0,1-1.558,1.152h0A1.5,1.5,0,0,1,166.891-471.043Zm1.655-6.263a1.631,1.631,0,0,1-1.363-1.85h0a1.612,1.612,0,0,1,1.834-1.363h0a1.625,1.625,0,0,1,1.379,1.834h0a1.636,1.636,0,0,1-1.606,1.4h0C168.708-477.29,168.626-477.306,168.546-477.306Zm-.909-8.081a1.627,1.627,0,0,1,1.623-1.623h0a1.627,1.627,0,0,1,1.623,1.623h0a1.627,1.627,0,0,1-1.623,1.623h0A1.627,1.627,0,0,1,167.638-485.387Z" transform="translate(-163.37 487.01)" fill="#333"/>
      </g>
      <g id="Group_265" data-name="Group 265" transform="translate(112 -472.065)">
        <path id="Path_701" data-name="Path 701" d="M121.283-459.051a1.619,1.619,0,0,1-1.339-.7A45.015,45.015,0,0,1,112-485.386a1.622,1.622,0,0,1,1.623-1.623,1.622,1.622,0,0,1,1.623,1.623,41.778,41.778,0,0,0,7.373,23.793,1.625,1.625,0,0,1-.419,2.257A1.613,1.613,0,0,1,121.283-459.051Z" transform="translate(-112 487.009)" fill="#333"/>
      </g>
      <g id="Group_266" data-name="Group 266" transform="translate(117.988 -489.493)">
        <path id="Path_702" data-name="Path 702" d="M115.69-497.749" transform="translate(-115.69 497.749)" fill="#333" stroke="#231f20" stroke-linecap="round" stroke-linejoin="round" stroke-width="2"/>
      </g>
      <g id="Group_267" data-name="Group 267" transform="translate(112 -491.116)">
        <path id="Path_703" data-name="Path 703" d="M113.606-476.7A1.613,1.613,0,0,1,112-478.321h0a1.621,1.621,0,0,1,1.639-1.623h0a1.617,1.617,0,0,1,1.606,1.639h0a1.614,1.614,0,0,1-1.623,1.606h-.016Zm.276-6.474a1.612,1.612,0,0,1-1.347-1.85h0a1.612,1.612,0,0,1,1.834-1.363h0a1.619,1.619,0,0,1,1.363,1.85h0a1.625,1.625,0,0,1-1.606,1.379h0C114.045-483.157,113.963-483.173,113.882-483.173Zm1.217-6.377a1.623,1.623,0,0,1-1.055-2.028h0a1.625,1.625,0,0,1,2.028-1.071h0a1.619,1.619,0,0,1,1.071,2.028h0a1.631,1.631,0,0,1-1.558,1.136h0A1.751,1.751,0,0,1,115.1-489.55Zm2.174-6.117a1.623,1.623,0,0,1-.746-2.174h0a1.637,1.637,0,0,1,2.174-.746h0a1.628,1.628,0,0,1,.746,2.174h0a1.62,1.62,0,0,1-1.462.909h0A1.581,1.581,0,0,1,117.274-495.667Z" transform="translate(-112 498.749)" fill="#333"/>
      </g>
      <g id="Group_268" data-name="Group 268" transform="translate(155.812 -502.896)">
        <path id="Path_704" data-name="Path 704" d="M140.623-491.405A1.622,1.622,0,0,1,139-493.028v-11.359a1.622,1.622,0,0,1,1.623-1.623,1.622,1.622,0,0,1,1.623,1.623v11.359A1.622,1.622,0,0,1,140.623-491.405Z" transform="translate(-139 506.009)" fill="#333"/>
      </g>
      <g id="Group_269" data-name="Group 269" transform="translate(155.812 -502.896)">
        <path id="Path_705" data-name="Path 705" d="M140.623-491.405A1.622,1.622,0,0,1,139-493.028v-11.359a1.622,1.622,0,0,1,1.623-1.623,1.622,1.622,0,0,1,1.623,1.623v11.359A1.622,1.622,0,0,1,140.623-491.405Z" transform="translate(-139 506.009)" fill="#333"/>
      </g>
      <g id="Group_270" data-name="Group 270" transform="translate(155.812 -452.593)">
        <path id="Path_706" data-name="Path 706" d="M140.623-460.405A1.622,1.622,0,0,1,139-462.028v-11.359a1.622,1.622,0,0,1,1.623-1.623,1.622,1.622,0,0,1,1.623,1.623v11.359A1.622,1.622,0,0,1,140.623-460.405Z" transform="translate(-139 475.009)" fill="#333"/>
      </g>
      <g id="Group_271" data-name="Group 271" transform="translate(124.981 -472.065)">
        <path id="Path_707" data-name="Path 707" d="M132.981-483.764H121.623A1.622,1.622,0,0,1,120-485.386a1.622,1.622,0,0,1,1.623-1.623h11.359a1.622,1.622,0,0,1,1.623,1.623A1.622,1.622,0,0,1,132.981-483.764Z" transform="translate(-120 487.009)" fill="#333"/>
      </g>
      <g id="Group_272" data-name="Group 272" transform="translate(124.981 -472.065)">
        <path id="Path_708" data-name="Path 708" d="M132.981-483.764H121.623A1.622,1.622,0,0,1,120-485.386a1.622,1.622,0,0,1,1.623-1.623h11.359a1.622,1.622,0,0,1,1.623,1.623A1.622,1.622,0,0,1,132.981-483.764Z" transform="translate(-120 487.009)" fill="#333"/>
      </g>
      <g id="Group_273" data-name="Group 273" transform="translate(175.284 -472.065)">
        <path id="Path_709" data-name="Path 709" d="M163.981-483.764H152.623A1.622,1.622,0,0,1,151-485.386a1.622,1.622,0,0,1,1.623-1.623h11.359a1.622,1.622,0,0,1,1.623,1.623A1.622,1.622,0,0,1,163.981-483.764Z" transform="translate(-151 487.009)" fill="#333"/>
      </g>
    </g>
  </g>
</svg>
