<svg xmlns="http://www.w3.org/2000/svg" xmlns:xlink="http://www.w3.org/1999/xlink" width="113.185" height="116.223" viewBox="0 0 113.185 116.223">
  <defs>
    <clipPath id="clip-path">
      <path id="bgicon" d="M90.978,15.348c-27-26.671-50-14.541-54,5.778S-4.2,45.5.392,69.5s54.586,9.75,54.586,31.5,57.806,21,57.806-7.5S117.978,42.018,90.978,15.348Z" fill="rgba(255,255,255,0.2)"/>
    </clipPath>
  </defs>
  <g id="Group_344" data-name="Group 344" transform="translate(-282.953 -2750)">
    <g id="bgicon-2" data-name="bgicon" transform="translate(282.953 2750)">
      <g id="Group_1" data-name="Group 1" transform="translate(0 0)">
        <path id="bgicon-3" data-name="bgicon" d="M90.978,15.348c-27-26.671-50-14.541-54,5.778S-4.2,45.5.392,69.5s54.586,9.75,54.586,31.5,57.806,21,57.806-7.5S117.978,42.018,90.978,15.348Z" fill="rgba(255,255,255,0.2)"/>
        <g id="Mask_Group_3" data-name="Mask Group 3" clip-path="url(#clip-path)">
          <g id="Color_Blue" data-name="Color/Blue" opacity="0.2">
            <rect id="Rectangle" width="114" height="117" fill="#459eff"/>
          </g>
        </g>
      </g>
    </g>
    <path id="Path_722" data-name="Path 722" d="M46.21,64.74H34a1.5,1.5,0,0,0-1.5,1.5V94.82a1.5,1.5,0,0,0,1.5,1.5H46.21a1.5,1.5,0,0,0,1.5-1.5V66.24A1.5,1.5,0,0,0,46.21,64.74Zm-1.5,28.58H35.46V67.74h9.25ZM25.21,81.08H13a1.5,1.5,0,0,0-1.5,1.5V94.82a1.5,1.5,0,0,0,1.5,1.5H25.21a1.5,1.5,0,0,0,1.5-1.5V82.58a1.5,1.5,0,0,0-1.5-1.5Zm-1.5,12.24H14.46V84.08h9.25ZM66.62,72.91H54.37a1.5,1.5,0,0,0-1.5,1.5V94.23a1.5,1.5,0,0,0,1.5,1.5H66.62a1.5,1.5,0,0,0,1.5-1.5V74.41A1.5,1.5,0,0,0,66.62,72.91Zm-1.5,19.82H55.87V75.91h9.25ZM87,52.5H74.79a1.5,1.5,0,0,0-1.5,1.5V94.82a1.5,1.5,0,0,0,1.5,1.5H87a1.5,1.5,0,0,0,1.5-1.5V54A1.5,1.5,0,0,0,87,52.5ZM85.5,93.32H76.29V55.5h9.25ZM19.09,72.07a5,5,0,0,0,5-5,5.07,5.07,0,0,0-.32-1.74L37.24,54.84a4.94,4.94,0,0,0,6.7-1l11.59,4.63v.38a5,5,0,1,0,9.44-2.27L78.58,43.17a4.87,4.87,0,0,0,2.33.61A5.109,5.109,0,1,0,76.47,41L62.83,54.49a4.91,4.91,0,0,0-6.19,1.25L45.05,51.1v-.37a5,5,0,0,0-10,0,4.85,4.85,0,0,0,.33,1.74L21.93,63a5,5,0,1,0-2.84,9.12ZM80.91,36.76a2,2,0,1,1-2,2A2,2,0,0,1,80.91,36.76ZM60.5,56.89a2,2,0,1,1-2,2A2,2,0,0,1,60.5,56.89ZM40.08,48.72a2,2,0,1,1-2,2A2,2,0,0,1,40.08,48.72Zm-21,16.33a2.012,2.012,0,1,0,.01,0Z" transform="translate(289.453 2742.22)" fill="#333"/>
  </g>
</svg>
