<svg id="Icon" xmlns="http://www.w3.org/2000/svg" width="14.693" height="11.927" viewBox="0 0 14.693 11.927">
  <g id="Icon-2" data-name="Icon" transform="translate(14.693 11.927) rotate(180)">
    <path id="Forma_1" data-name="Forma 1" d="M8.664.067a.232.232,0,0,0,0,.324l5.26,5.345H.225a.229.229,0,0,0,0,.457h13.7L8.664,11.537a.231.231,0,0,0,0,.323.223.223,0,0,0,.318,0l5.644-5.734a.232.232,0,0,0,0-.328L8.982.067A.222.222,0,0,0,8.823,0,.225.225,0,0,0,8.664.067Z" transform="translate(0 0)"/>
  </g>
  <path id="Color_Overlay" data-name="Color Overlay" d="M5.71,11.86.07,6.129A.232.232,0,0,1,0,5.963a.229.229,0,0,1,.023-.1A.239.239,0,0,1,.066,5.8L5.71.067a.223.223,0,0,1,.318,0,.232.232,0,0,1,0,.323L.768,5.734h13.7a.229.229,0,0,1,0,.457H.769l5.26,5.345a.232.232,0,0,1,0,.323.223.223,0,0,1-.318,0Z" transform="translate(0 0)" fill="#171721"/>
</svg>
