<svg xmlns="http://www.w3.org/2000/svg" xmlns:xlink="http://www.w3.org/1999/xlink" width="1253.999" height="601.254" viewBox="0 0 1253.999 601.254">
  <defs>
    <linearGradient id="linear-gradient" x1="0.5" y1="1" x2="0.5" gradientUnits="objectBoundingBox">
      <stop offset="0" stop-color="#c9d4d7"/>
      <stop offset="1" stop-color="#c9d4d7" stop-opacity="0"/>
    </linearGradient>
  </defs>
  <g id="Group_386" data-name="Group 386" transform="translate(-333 -5228.029)">
    <g id="Group_179" data-name="Group 179" transform="translate(333 5364.358)">
      <path id="Path_635" data-name="Path 635" d="M1910.368,886.259h-5.557a27.784,27.784,0,0,1-27.784-27.784v-5.557a27.785,27.785,0,0,1,27.784-27.784h5.557a27.784,27.784,0,0,1,27.784,27.784v5.557A27.784,27.784,0,0,1,1910.368,886.259ZM2310,1013.6v-5.557a27.784,27.784,0,0,0-27.784-27.784h-5.557a27.784,27.784,0,0,0-27.784,27.784v5.557a27.784,27.784,0,0,0,27.784,27.784h5.557A27.784,27.784,0,0,0,2310,1013.6ZM1620.948,1218.05h0a54.874,54.874,0,0,0-54.874-54.874h-455.2A54.874,54.874,0,0,0,1056,1218.05h0a54.874,54.874,0,0,0,54.874,54.874h455.2A54.874,54.874,0,0,0,1620.948,1218.05Zm669.139,0h0a54.874,54.874,0,0,0-54.874-54.874h-455.2a54.874,54.874,0,0,0-54.874,54.874h0a54.874,54.874,0,0,0,54.874,54.874h455.2A54.874,54.874,0,0,0,2290.087,1218.05Zm-78.722-209.308h0a54.874,54.874,0,0,0-54.874-54.874h-455.2a54.874,54.874,0,0,0-54.874,54.874h0a54.874,54.874,0,0,0,54.874,54.874h455.2A54.874,54.874,0,0,0,2211.365,1008.742ZM1474.617,936.5h0a54.874,54.874,0,0,0-54.874-54.874H1250.722a54.874,54.874,0,0,0-54.874,54.874h0a54.874,54.874,0,0,0,54.874,54.874h169.021A54.874,54.874,0,0,0,1474.617,936.5Zm357.955-73.628h0A54.874,54.874,0,0,0,1777.7,808H1608.677a54.874,54.874,0,0,0-54.874,54.874h0a54.874,54.874,0,0,0,54.874,54.874H1777.7A54.874,54.874,0,0,0,1832.572,862.874Zm-688.588,76.175v-5.557a27.784,27.784,0,0,0-27.784-27.784h-5.557a27.785,27.785,0,0,0-27.784,27.784v5.557a27.784,27.784,0,0,0,27.784,27.784h5.557A27.784,27.784,0,0,0,1143.984,939.049Z" transform="translate(-1056 -808)" fill="url(#linear-gradient)"/>
      <g id="Working_with_team" data-name="Working with team" transform="translate(249.35 45.366)">
        <g id="Group_592" data-name="Group 592" transform="translate(0 253.736)">
          <path id="Path_1361" data-name="Path 1361" d="M2292.016,1483.647c-108.533-42.53-240.3-25.456-351.986-18.26-26.1,1.681-52.275,2.448-78.394,1.035-22.523-1.218-44.877-4.9-67.224-8.314-52.813-8.064-106.9-5.068-158.755,13.764-10.929,3.968-22.152,8.418-31.934,15.605-6.677,4.909-11.484,15.32-8.19,26.2,3.855,12.744,12.056,19.386,22.189,23.64,10.626,4.46,21.838,6.529,33.039,7.519,22.779,2.009,45.6-.014,68.388,1.17,14.241.741,28.667,1.336,42.864,2.88,11.56,1.258,28.613,2.615,36.614,14.346,6.344,9.3,3.683,22.488-3.89,29.463-9.612,8.852-22.222,12.459-33.341,17.7-4.751,2.239-10.872,5.128-15.791,9.3h543.218c-.728-8.872-4.451-17.525-5.826-26.174-2.779-17.467,8.6-29.392,19.271-38.962,9.349-8.387,22.32-25.2,18.668-42.1C2316.9,1493.759,2306.292,1489.242,2292.016,1483.647Z" transform="translate(-1594.468 -1453.907)" fill="#a4b7cc"/>
        </g>
        <g id="plant" transform="translate(12.533 111.576)">
          <ellipse id="Ellipse_148" data-name="Ellipse 148" cx="28.203" cy="5.378" rx="28.203" ry="5.378" transform="translate(19.081 163.229)" fill="#046c71"/>
          <g id="plant-2">
            <path id="Path_1362" data-name="Path 1362" d="M1667.182,1152.817c0,.412,1.073,4.538,1.073,7.01s-10.111,13.608-3.338,21.031,6.558,9.485,5.057,15.671-2.362,9.691,3.433,14.846c3.529,3.14,7.293,8.493,9.893,12.809.023.059,6.148,21.048,4.7,32.758.322.31,2.856.139,2.856.139S1690.363,1174.257,1667.182,1152.817Z" transform="translate(-1643.573 -1150.084)" fill="#4e8932"/>
            <path id="Path_1363" data-name="Path 1363" d="M1717.477,1253.772s6.322-97.578,20.063-106.857c-.528.068.795,11.133.941,12.015.509,3.069,1.907,5.93,2.242,9.1a25.6,25.6,0,0,1-.4,9.481,8.345,8.345,0,0,1-2.466,3.909,9.114,9.114,0,0,0-2.026,4.917,22.2,22.2,0,0,0,.068,9.261c.859,3.31,1.359,5.73.093,9.011a17.911,17.911,0,0,1-5.855,7.714c-5.892,4.485-8.468,24.708-8.951,41.581A26.179,26.179,0,0,1,1717.477,1253.772Z" transform="translate(-1673.048 -1146.915)" fill="#4e8932"/>
            <path id="Path_1364" data-name="Path 1364" d="M1668.054,1295.066s-28.653-56.444-45.715-68.35a17.215,17.215,0,0,1,0,10.361c-1.932,5.412-.966,17.63,9.336,21.341s9.015,9.123,11.268,14.537,10.625,4.02,14.81,8.968,8.21,14.691,8.21,14.691Z" transform="translate(-1621.533 -1189.755)" fill="#4e8932"/>
            <path id="Path_1365" data-name="Path 1365" d="M1712.68,1300.269s33.24-64.243,53.036-77.8c.186-.352-2.241,5.632,0,11.793s1.121,20.064-10.831,24.288-10.458,10.385-13.072,16.545-12.326,4.577-17.18,10.209-9.524,16.721-9.524,16.721Z" transform="translate(-1670.472 -1187.476)" fill="#4e8932"/>
            <path id="Path_1366" data-name="Path 1366" d="M1697.825,1441.016H1682.54a13.518,13.518,0,0,1-13.61-11.638l-6.26-51.559h55.024l-6.26,51.559A13.518,13.518,0,0,1,1697.825,1441.016Z" transform="translate(-1643.62 -1270.894)" fill="#063d3f"/>
            <path id="Path_2308" data-name="Path 2308" d="M1661.032,1371.526h53.945a2.418,2.418,0,0,1,2.417,2.417h0V1377a2.418,2.418,0,0,1-2.417,2.417h-53.945a2.417,2.417,0,0,1-2.417-2.417v-3.053A2.417,2.417,0,0,1,1661.032,1371.526Z" transform="translate(-1641.443 -1267.515)" fill="#046c71"/>
          </g>
        </g>
        <g id="shadow" transform="translate(131.447 324.032)">
          <ellipse id="Ellipse_149" data-name="Ellipse 149" cx="28.203" cy="5.378" rx="28.203" ry="5.378" transform="translate(145.12)" fill="#046c71"/>
          <ellipse id="Ellipse_150" data-name="Ellipse 150" cx="28.203" cy="5.378" rx="28.203" ry="5.378" transform="translate(71.905 0.922)" fill="#046c71"/>
          <ellipse id="Ellipse_151" data-name="Ellipse 151" cx="28.203" cy="5.378" rx="28.203" ry="5.378" transform="translate(0 0.922)" fill="#046c71"/>
          <ellipse id="Ellipse_152" data-name="Ellipse 152" cx="27.91" cy="5.378" rx="27.91" ry="5.378" transform="translate(230.604)" fill="#046c71"/>
          <ellipse id="Ellipse_153" data-name="Ellipse 153" cx="27.91" cy="6.146" rx="27.91" ry="6.146" transform="translate(302.069)" fill="#046c71"/>
          <ellipse id="Ellipse_154" data-name="Ellipse 154" cx="27.91" cy="6.163" rx="27.91" ry="6.163" transform="translate(346.883 2.495)" fill="#046c71"/>
        </g>
        <g id="chair" transform="translate(362.861 223.461)">
          <path id="Path_2307" data-name="Path 2307" d="M2601.057,1405.272h0a1.5,1.5,0,0,1,1.5,1.5h0v77.067a1.5,1.5,0,0,1-1.5,1.5h0a1.5,1.5,0,0,1-1.5-1.5V1406.77a1.5,1.5,0,0,1,1.5-1.5Z" transform="translate(-2496.99 -1397.519)" fill="#4e8932"/>
          <path id="Path_2306" data-name="Path 2306" d="M2396.477,1405.272h0a1.5,1.5,0,0,1,1.5,1.5h0v77.067a1.5,1.5,0,0,1-1.5,1.5h0a1.5,1.5,0,0,1-1.5-1.5V1406.77a1.5,1.5,0,0,1,1.5-1.5Z" transform="translate(-2387.146 -1397.519)" fill="#4e8932"/>
          <path id="Path_2305" data-name="Path 2305" d="M2382.308,1388.529H2487.45a4.245,4.245,0,0,1,4.245,4.246v2.18a4.246,4.246,0,0,1-4.245,4.245H2382.308a4.245,4.245,0,0,1-4.245-4.245v-2.18A4.245,4.245,0,0,1,2382.308,1388.529Z" transform="translate(-2378.063 -1388.529)" fill="#4e8932"/>
        </g>
        <g id="girl_2" data-name="girl 2" transform="translate(286.71 2.06)">
          <path id="Path_1367" data-name="Path 1367" d="M2448.176,1499.086a6.707,6.707,0,0,1,3.924,4.3c2.617,8.87,6.071,35.381,2.484,42.9-4.3,9.014-47.714,11.837-52.081,8.115s28.711-15.625,32.329-20.105-1.106-17.58-1.394-22.274C2433.169,1507.647,2435.12,1493.773,2448.176,1499.086Z" transform="translate(-2314.821 -1225.847)" fill="#002d2d"/>
          <path id="Path_1368" data-name="Path 1368" d="M2407.045,1356.548c3.349-7.548,12.018-12.955,19.192-11.989,8.278,1.115,18.495,6.584,22.446,25.589,7.1,34.129,5.806,59.348,6.69,58.833s-20.931,7.8-20.931,7.8S2391.42,1391.78,2407.045,1356.548Z" transform="translate(-2315.638 -1143.459)" fill="#88b4d3"/>
          <path id="Path_1369" data-name="Path 1369" d="M2420.684,1432.97s23.066-41.14,30.951-41.429c-.013-.068-2.487-13.888-8.71-15.386S2383.115,1375,2420.684,1432.97Z" transform="translate(-2317.679 -1160.285)" fill="#678fa5"/>
          <path id="Path_1370" data-name="Path 1370" d="M2284.558,1519.262a6.709,6.709,0,0,1,.053,5.82c-3.971,8.351-16.578,33.795-24.271,37-9.22,3.84-45.944-26.43-46.713-32.116s31.807,7.53,37.493,6.608,10.909-13.83,13.83-17.518C2267.669,1515.623,2278.381,1506.593,2284.558,1519.262Z" transform="translate(-2213.615 -1233.809)" fill="#002d2d"/>
          <path id="Path_1371" data-name="Path 1371" d="M2441.232,1283.445h-41.159a21.864,21.864,0,0,0-16.007,6.992,15.319,15.319,0,0,0-4.52.991c-36.762,14.13-60.219,107.753-60.219,107.753s24.16,5.272,23.28,4.84,23.831-25.515,47.773-60.812c1.014-1.495,1.936-2.956,2.79-4.39a21.733,21.733,0,0,0,6.9,1.127h41.159a21.986,21.986,0,0,0,21.921-21.92v-12.657A21.986,21.986,0,0,0,2441.232,1283.445Z" transform="translate(-2270.375 -1110.705)" fill="#88b4d3"/>
          <path id="Path_1372" data-name="Path 1372" d="M2420.988,1309.221l-9.082,9.073s98.255-4.847,100.182-4.847Z" transform="translate(-2320.082 -1124.545)" fill="#678fa5"/>
          <path id="Path_1373" data-name="Path 1373" d="M2393.34,961.658a12.216,12.216,0,0,1,5.038-5.226c2.568-1.487,6.622-5.218,6.83-14,.307-12.908,3.534-33.191,23.971-31.961s30.424,11.678,42.1,33.651c4.917,9.373,18.9,8.143,26.89,17.21,4,4.918,2,14.752,8.145,17.518s10.6,1.844,13.985,7.684-6.454,11.371-4,13.985,11.524,11.371-4.61,23.049-128.69,27.582-122.467-22.9c1.153-9.22,5.762-9.678,6.684-19.246C2396.7,973.289,2389.79,969.156,2393.34,961.658Z" transform="translate(-2307.773 -910.415)" fill="#143528"/>
          <path id="Path_2304" data-name="Path 2304" d="M2476.866,1005.468l1.077-.352a10.243,10.243,0,0,1,12.92,6.552h0l3.955,12.093a10.243,10.243,0,0,1-6.552,12.92h0l-1.077.352a10.243,10.243,0,0,1-12.919-6.552h0l-3.955-12.093a10.243,10.243,0,0,1,6.552-12.92Z" transform="translate(-2351.169 -960.988)" fill="#e1f4f9"/>
          <path id="Path_1374" data-name="Path 1374" d="M2512.005,982.762c0,5.919-11.345,11.008-15.548,11.008s2.766-3.724,2.766-9.643,3.405-10.718,7.607-10.718S2512.005,976.842,2512.005,982.762Z" transform="translate(-2364.757 -944.238)" fill="#e1f4f9"/>
          <path id="Path_1375" data-name="Path 1375" d="M2448.874,1160.969a2.667,2.667,0,0,1-2.511-2.725c.32-14.53,2.332-85.9,11.074-85.513,9.3.409,8.348,8.562,28.6,1.147a2.567,2.567,0,0,1,3.3,1.518,2.6,2.6,0,0,1,.136.546c2,15.1,9.9,78.384,5.551,82.866C2490.826,1163.137,2458.314,1161.533,2448.874,1160.969Z" transform="translate(-2338.583 -997.566)" fill="#4e8932"/>
          <path id="Path_1376" data-name="Path 1376" d="M2467.409,1016.684l4.458,11.07s14.082-14.011,13.79-20.25C2485.331,1000.5,2467.948,1013.95,2467.409,1016.684Z" transform="translate(-2349.884 -961.473)" fill="#c7dde2"/>
          <path id="Path_1377" data-name="Path 1377" d="M2520.638,1085.293s4.142-2.981,5.074-6.858c.024-.034,18.334,78.722,11.881,82.637S2522.985,1145.061,2520.638,1085.293Z" transform="translate(-2378.464 -1000.63)" fill="#376022"/>
          <path id="Path_1378" data-name="Path 1378" d="M2471.6,1053.21s17.517-11.294,29.964-3.112c5.417,3.8-9.8,27.544-22.819,23.28S2471.6,1053.21,2471.6,1053.21Z" transform="translate(-2351.423 -983.818)" fill="#e1f4f9"/>
          <path id="Path_1379" data-name="Path 1379" d="M2434.044,1058.005s-26,13.332-35.569,40.976,29.458,9.666,29.612,4.748S2428.016,1062.374,2434.044,1058.005Z" transform="translate(-2312.06 -989.66)" fill="#59adad"/>
          <g id="Note" transform="translate(59.396 99.702)">
            <path id="Path_1380" data-name="Path 1380" d="M2421.268,1205.779l-57.876.979a3.686,3.686,0,0,1-3.647-2.825l-17.762-73.66a3.687,3.687,0,0,1,3.585-4.552h57.438a3.687,3.687,0,0,1,3.577,2.792l18.2,72.684a3.688,3.688,0,0,1-3.513,4.583Z" transform="translate(-2341.879 -1125.72)" fill="#063d3f"/>
          </g>
          <path id="Path_1381" data-name="Path 1381" d="M2522.356,1048.039c-.007.516-.846,6.245-1.718,20.933,8.237-5.942,11.728-15.829,8.039-18.419-.469-.309-.949-.581-1.432-.836-4.009-1.329-.067-.553-3.17-1.244C2523.955,1048.617,2522.451,1048.043,2522.356,1048.039Z" transform="translate(-2378.464 -984.309)" fill="#c7dde2"/>
          <ellipse id="Ellipse_155" data-name="Ellipse 155" cx="23.568" cy="19.014" rx="23.568" ry="19.014" transform="translate(95.06 57.647) rotate(-78.056)" fill="#e1f4f9"/>
          <path id="Path_1382" data-name="Path 1382" d="M2428.388,942.442s17.287-3.919,17.863-12.331c.346,0-.691,17.518,15.9,19.016,2.074.115,2.535.346,2.881,1.728s1.729,1.844,1.5-1.153,3.918-7.837,6.338-4.495-.691,12.446-7.26,13.254c.115.232,12.244-3.339,16.639-20.86,4.106-16.365-38.055-41.6-52.48-14.29C2422.641,936.8,2427.927,940.252,2428.388,942.442Z" transform="translate(-2327.688 -910.85)" fill="#143528"/>
          <path id="Path_1383" data-name="Path 1383" d="M2488.175,1215.974a11.339,11.339,0,0,0-2.112,3.2c-.732,1.551-3.143,4.446-11.074,6.087-11.2,2.315-34.846,7.733-53.273,9.46-4.02.922-8.054-4.375-15.2-1.035s-9.8,7.374-7.491,12.329,88.278,10.487,106.372,5.532,19.8-17.619,20.1-27.191C2525.78,1215.29,2499.82,1204.258,2488.175,1215.974Z" transform="translate(-2312.732 -1071.754)" fill="#e1f4f9"/>
          <path id="Path_1384" data-name="Path 1384" d="M2564.007,1225.6s10.906-1.343,12.314-10.862,51.062,3.037,34.573,25.277C2610.479,1240.651,2592.373,1220.633,2564.007,1225.6Z" transform="translate(-2401.75 -1072.087)" fill="#c7dde2"/>
          <path id="Path_1385" data-name="Path 1385" d="M2526.019,1049.329h0c.058.01,35.394,6.363,50.825,42.52,15.439,36.178,17.746,46.554,14.984,55.082-.378-.4-20.037-15.189-39.612-11.633l-2.049.814c-1.355.966-6.232,2.705-15.963,3.217.151,0-12.833-14.783-10.6-44.254C2525.828,1065.639,2526.019,1049.371,2526.019,1049.329Z" transform="translate(-2379.915 -985.002)" fill="#59adad"/>
          <path id="Path_1386" data-name="Path 1386" d="M2556.607,1102.658s-.977,58.743,12.841,61.295c-.134.025-8.736,3.992-9.944,3.195S2553.611,1129.549,2556.607,1102.658Z" transform="translate(-2397.248 -1013.635)" fill="#428c8a"/>
        </g>
        <g id="girl_1" data-name="girl 1" transform="translate(444.368)">
          <path id="Path_1391" data-name="Path 1391" d="M2649.594,1484.168s-3.72-66.816,16.9-70.536,16.9,35.657,9.457,50.693c-3.1,6.976-11.006,21.549-11.006,21.549S2654.4,1504.632,2649.594,1484.168Z" transform="translate(-2605.222 -1178.414)" fill="#e1f4f9"/>
          <path id="Path_1392" data-name="Path 1392" d="M2669.1,1415.742s.231-5.877-7.2,10.89c-2.543,5.736,17.538,7.18,25.451,22.462-.022.127,2.92-12.839,0-21.827S2673.13,1412.746,2669.1,1415.742Z" transform="translate(-2611.848 -1179.143)" fill="#c7dde2"/>
          <path id="Path_1393" data-name="Path 1393" d="M2690.647,1444.773c7.317,5.648,11.085,24.51,11.4,24.749s3.758-11.725,3.758-17.142S2690.647,1444.773,2690.647,1444.773Z" transform="translate(-2627.405 -1195.267)" fill="#c7dde2"/>
          <path id="Path_1394" data-name="Path 1394" d="M2598.385,1563.569l16.471.975s.2,20.306-1.412,23.418-59.352,3.227-59.352,1.729-1.423-5.061,22.473-12.6C2587.052,1574.363,2596.118,1572.942,2598.385,1563.569Z" transform="translate(-2554.076 -1259.052)" fill="#002d2d"/>
          <path id="Path_1395" data-name="Path 1395" d="M2725.093,1491.806s-23.17-67.185-4.446-76.676,26.7,31.736,23.955,49.143c-.934,7.978-4.26,25.038-4.26,25.038S2735.713,1511.371,2725.093,1491.806Z" transform="translate(-2639.589 -1178.599)" fill="#e1f4f9"/>
          <path id="Path_1396" data-name="Path 1396" d="M2714.008,1467.325s30.8,9.808,31.177,13.835c.494.571.955-14.987-3.2-18.1S2709.435,1445.37,2714.008,1467.325Z" transform="translate(-2639.682 -1200.992)" fill="#c7dde2"/>
          <path id="Path_1397" data-name="Path 1397" d="M2693.73,1575.347h16.413s.72,18.393-.708,21.147-52.509,2.854-52.509,1.528-1.259-4.477,19.882-11.141C2686.088,1584.459,2691.726,1583.639,2693.73,1575.347Z" transform="translate(-2609.292 -1265.376)" fill="#002d2d"/>
          <path id="Path_1398" data-name="Path 1398" d="M2790.319,1269.4a22.409,22.409,0,0,1,8.024,19.348c-1.257,14.365-8.375,38.735-42,40.53-7.286.388-11.006-.231-25.579,32.013-8.371,13.953-6.228,14.572-31.1,3.876s-40.06-22.169-38.51-30.074c1.538-7.843,13.515-61.9,66.1-50.974a10.675,10.675,0,0,0,3.737.188c6.358-.95,9.287-7.266,10.47-8.937C2745.664,1269.438,2770.639,1253.384,2790.319,1269.4Z" transform="translate(-2611.513 -1097.396)" fill="#59adad"/>
          <path id="Path_1399" data-name="Path 1399" d="M2715.834,1363.755a2.176,2.176,0,1,1,2.176-2.177A2.177,2.177,0,0,1,2715.834,1363.755Zm0-3.958a1.783,1.783,0,1,0,1.782,1.783,1.784,1.784,0,0,0-1.782-1.783Zm-24.661,1.356-.51-.25q-1.111-.54-2.188-1.084l-.5-.251.549-.117a2.168,2.168,0,0,1,2.4,1.191Zm-1.745-1.3c.209.1.417.207.628.31a1.764,1.764,0,0,0-.628-.31Zm39.255-3.766a2.176,2.176,0,1,1,2.177-2.176,2.176,2.176,0,0,1-2.177,2.176Zm0-3.958a1.783,1.783,0,1,0,1.783,1.782,1.784,1.784,0,0,0-1.783-1.782Zm-26.978,3.958a2.292,2.292,0,1,1,2.246-2.4,2.143,2.143,0,0,1-.116.674,2.167,2.167,0,0,1-2.129,1.731Zm.068-4.188a1.787,1.787,0,0,0-1.748,1.439,1.875,1.875,0,0,0-.1.573,1.782,1.782,0,0,0,3.53.344,1.834,1.834,0,0,0,.1-.574,1.784,1.784,0,0,0-1.781-1.782Zm-24.062,1.928-.427-.269c-.827-.519-1.553-.987-2.218-1.43l-.417-.278.5-.078a2.034,2.034,0,0,1,.343-.033,2.177,2.177,0,0,1,2.091,1.6Zm-1.878-1.663q.515.336,1.087.7a1.781,1.781,0,0,0-1.086-.7Zm40-.5a2.176,2.176,0,1,1,2.176-2.177,2.176,2.176,0,0,1-2.176,2.177Zm0-3.958a1.783,1.783,0,1,0,1.782,1.782,1.785,1.785,0,0,0-1.782-1.782Zm-26.863,3.958a2.176,2.176,0,1,1,2.177-2.177,2.176,2.176,0,0,1-2.177,2.177Zm0-3.958a1.783,1.783,0,1,0,1.783,1.782,1.785,1.785,0,0,0-1.783-1.782Zm39.712-3.7a2.176,2.176,0,1,1,2.177-2.177,2.176,2.176,0,0,1-2.177,2.177Zm0-3.958a1.783,1.783,0,1,0,1.783,1.783,1.784,1.784,0,0,0-1.783-1.783Zm-26.978,3.958a2.176,2.176,0,0,1-2.176-2.177,2.133,2.133,0,0,1,.112-.661,2.175,2.175,0,0,1,4.307.431,2.126,2.126,0,0,1-.116.673,2.167,2.167,0,0,1-2.125,1.732Zm.068-4.188a1.786,1.786,0,0,0-1.748,1.44l-.006.023a1.778,1.778,0,1,0,3.434.894,1.851,1.851,0,0,0,.1-.574,1.785,1.785,0,0,0-1.781-1.785Zm-26.286,4.188a2.176,2.176,0,1,1,2.177-2.177,2.176,2.176,0,0,1-2.177,2.177Zm0-3.958a1.783,1.783,0,1,0,1.783,1.783,1.784,1.784,0,0,0-1.783-1.783Zm40.346-.463a2.176,2.176,0,1,1,2.176-2.176,2.177,2.177,0,0,1-2.176,2.176Zm0-3.957a1.782,1.782,0,1,0,1.782,1.782,1.784,1.784,0,0,0-1.782-1.782Zm-26.863,3.957a2.176,2.176,0,1,1,2.177-2.176,2.176,2.176,0,0,1-2.177,2.176Zm0-3.957a1.782,1.782,0,1,0,1.783,1.782,1.784,1.784,0,0,0-1.783-1.782Zm-26.334,3.957a2.168,2.168,0,0,1-.465-.052l-.1-.021-.041-.09a8.131,8.131,0,0,1-.806-3.57v-.093l.073-.057a2.15,2.15,0,0,1,1.335-.468,2.176,2.176,0,0,1,0,4.351Zm-.287-.417a1.694,1.694,0,0,0,.287.025,1.782,1.782,0,1,0,0-3.564,1.751,1.751,0,0,0-1.019.33,7.766,7.766,0,0,0,.731,3.209Zm79.854.417-.115,0a2.173,2.173,0,1,1,2.034-3.11l.05.1-.065.093c-.611.875-1.214,1.8-1.841,2.818Zm-.038-3.956a1.779,1.779,0,0,0-.175,3.55c.585-.95,1.152-1.814,1.723-2.64a1.769,1.769,0,0,0-1.547-.912Zm-13.484-3.7a2.175,2.175,0,1,1,2.177-2.177,2.176,2.176,0,0,1-2.177,2.177Zm0-3.957a1.782,1.782,0,1,0,1.783,1.781,1.784,1.784,0,0,0-1.783-1.781Zm-26.978,3.957a2.292,2.292,0,1,1,2.246-2.406,2.138,2.138,0,0,1-.116.674,2.168,2.168,0,0,1-2.128,1.73Zm.068-4.187a1.786,1.786,0,0,0-1.748,1.438,1.882,1.882,0,0,0-.1.573,1.782,1.782,0,0,0,3.531.344,1.84,1.84,0,0,0,.1-.574,1.784,1.784,0,0,0-1.781-1.784Zm-26.286,4.188a2.175,2.175,0,1,1,2.177-2.177,2.176,2.176,0,0,1-2.177,2.177Zm0-3.957a1.782,1.782,0,1,0,1.783,1.781,1.785,1.785,0,0,0-1.783-1.781Zm77.229,1.684.046-.278a2.168,2.168,0,0,1,4.178-.362l.086.237-.312.03-.516.028a25.458,25.458,0,0,0-3.208.293Zm2.186-1.684a1.776,1.776,0,0,0-1.68,1.2,28.925,28.925,0,0,1,2.958-.249l.281-.015a1.781,1.781,0,0,0-1.557-.935Zm13.435-3.815a2.177,2.177,0,1,1,2.176-2.177,2.177,2.177,0,0,1-2.176,2.177Zm0-3.958a1.783,1.783,0,1,0,1.783,1.783,1.784,1.784,0,0,0-1.783-1.783Zm-26.91,3.958a2.177,2.177,0,1,1,2.177-2.177,2.177,2.177,0,0,1-2.177,2.177Zm0-3.958a1.783,1.783,0,1,0,1.783,1.783,1.784,1.784,0,0,0-1.783-1.783Zm-26.333,3.958a2.177,2.177,0,1,1,2.176-2.177,2.176,2.176,0,0,1-2.176,2.177Zm0-3.958a1.783,1.783,0,1,0,1.783,1.783,1.785,1.785,0,0,0-1.783-1.783Zm-26.863,3.958a2.177,2.177,0,1,1,2.177-2.177,2.176,2.176,0,0,1-2.177,2.177Zm0-3.958a1.783,1.783,0,1,0,1.783,1.783,1.783,1.783,0,0,0-1.783-1.783Zm92.955-3.7a2.176,2.176,0,1,1,2.177-2.176,2.176,2.176,0,0,1-2.177,2.176Zm0-3.958a1.783,1.783,0,1,0,1.783,1.783,1.785,1.785,0,0,0-1.783-1.783Zm-27.024,3.958a2.176,2.176,0,0,1-2.176-2.176,2.522,2.522,0,0,1,2.289-2.405,2.177,2.177,0,0,1,2.177,2.177,2.519,2.519,0,0,1-2.289,2.4Zm.115-4.189a1.774,1.774,0,0,0-1.654,1.129l-.011.023a1.752,1.752,0,0,0-.231.862,1.845,1.845,0,1,0,1.9-2.018h0Zm-26.334,4.189a2.176,2.176,0,1,1,2.177-2.176,2.176,2.176,0,0,1-2.177,2.176Zm0-3.958a1.783,1.783,0,1,0,1.783,1.783,1.785,1.785,0,0,0-1.783-1.783Zm-26.977,3.958a2.177,2.177,0,0,1-2.177-2.176,2.5,2.5,0,0,1,2.245-2.406,2.178,2.178,0,0,1,2.177,2.177,2.149,2.149,0,0,1-.112.662,2.177,2.177,0,0,1-2.133,1.741Zm.067-4.189a1.788,1.788,0,0,0-1.748,1.44,1.905,1.905,0,0,0-.1.574,1.782,1.782,0,0,0,3.531.344l.006-.023a1.76,1.76,0,0,0-1.684-2.339Zm-26.286,4.189a2.176,2.176,0,1,1,2.177-2.176,2.177,2.177,0,0,1-2.177,2.176Zm0-3.958a1.783,1.783,0,1,0,1.783,1.783,1.785,1.785,0,0,0-1.783-1.783Zm94.51-1.3a4.051,4.051,0,1,0,0-.005Zm0-3.958a1.356,1.356,0,1,0,0-.006h0Zm-26.8,3.958a2.174,2.174,0,1,0,0-.005Zm0-3.958a1.3,1.3,0,1,0,0-.006h0Zm-26.333,3.958a4.051,4.051,0,1,0,0-.005Zm0-3.958a1.338,1.338,0,1,0,0-.006h0Zm-26.863,3.958a3.693,3.693,0,1,0,0-.005Zm0-3.958a1.31,1.31,0,1,0,0-.006h0Zm92.841-3.7a3.578,3.578,0,1,0,0-.005Zm0-3.958a1.289,1.289,0,1,0,0-.006h0Zm-26.909,3.958a2.176,2.176,0,0,1-2.177-2.177.945.945,0,0,1,.007-.095c0-.071-.007-.1-.007-.136a2.176,2.176,0,1,1,4.353,0,.7.7,0,0,1-.008.1c0,.071.008.1.008.135a2.176,2.176,0,0,1-2.175,2.171Zm0-4.188a1.785,1.785,0,0,0-1.783,1.782l.012.1-.007.088a1.787,1.787,0,0,0,1.751,1.823h.028a1.786,1.786,0,0,0,1.783-1.783l-.012-.1.008-.089a1.787,1.787,0,0,0-1.745-1.828h-.031Zm-26.219,4.188a3.067,3.067,0,1,0,0-.005Zm0-3.958a1.282,1.282,0,1,0,0-.006h0ZM2702,1303.577a2.177,2.177,0,0,1-2.176-2.177,2.5,2.5,0,0,1,2.245-2.406,2.292,2.292,0,0,1-.068,4.577Zm.068-4.188a1.784,1.784,0,0,0-1.748,1.438,1.872,1.872,0,0,0-.1.575,1.782,1.782,0,0,0,3.531.344,1.865,1.865,0,0,0,.1-.575,1.785,1.785,0,0,0-1.781-1.788h0Zm-26.287,4.188a2.153,2.153,0,0,1-1-.254l-.2-.105.132-.185c.78-1.084,1.579-2.123,2.372-3.09l.145-.174.153.167a2.166,2.166,0,0,1-1.6,3.636Zm-.61-.509a1.7,1.7,0,0,0,.61.116,1.784,1.784,0,0,0,1.783-1.783,1.754,1.754,0,0,0-.329-1.019c-.689.84-1.383,1.743-2.063,2.68Zm119.153-7.11a3.265,3.265,0,1,0,0-.006Zm0-3.958a1.271,1.271,0,1,0,0-.005h0Zm-26.333,3.958a3.265,3.265,0,1,0,0-.006Zm0-3.958a1.406,1.406,0,1,0,0-.005h0Zm-26.565,3.727a3.527,3.527,0,1,0,0-.006Zm0-3.958a1.273,1.273,0,1,0,0-.006h0Zm-26.333,3.958a2.52,2.52,0,1,0,0-.006Zm0-3.958a1.373,1.373,0,1,0,0-.006h0Zm-26.863,3.958a3.527,3.527,0,1,0,0-.006Zm0-3.958a1.273,1.273,0,1,0,0-.006h0Zm92.609-3.473a3.354,3.354,0,1,0,0-.006Zm0-3.958a1.281,1.281,0,1,0,0-.007h0Zm-26.679,3.728a.772.772,0,0,1-.093-.008c-.077,0-.107.008-.139.008a2.176,2.176,0,1,1,0-4.353.644.644,0,0,1,.095.008c.072,0,.1-.008.136-.008a2.173,2.173,0,1,1,0,4.346Zm-.2-3.954a1.787,1.787,0,0,0-1.815,1.76v.019a1.786,1.786,0,0,0,1.783,1.783l.036,0a.54.54,0,0,1,.159,0h.008a1.787,1.787,0,0,0,1.81-1.762v-.016a1.785,1.785,0,0,0-1.784-1.783l-.1.011-.089-.006Zm-26.021,3.954a2.172,2.172,0,0,1-.319-4.322l.034-.005.034.007c.345.072.722.131,1.153.182l.063.02a2.166,2.166,0,0,1-.963,4.109Zm-.294-3.926a1.766,1.766,0,0,0-1.487,1.743,1.783,1.783,0,1,0,2.6-1.574c-.412-.049-.777-.107-1.114-.175Zm-26.683,3.926a2.155,2.155,0,0,1-2.061-2.85,2.112,2.112,0,0,1,.226-.6l.038-.069.075-.024c.968-.308,1.852-.563,2.707-.776l.075-.019.068.038a2.174,2.174,0,0,1,1.112,1.888,2.141,2.141,0,0,1-.115.673,2.17,2.17,0,0,1-2.123,1.728Zm-1.525-3.188a1.727,1.727,0,0,0-.156.438,1.908,1.908,0,0,0-.1.575,1.782,1.782,0,0,0,3.53.343,1.869,1.869,0,0,0,.1-.573,1.782,1.782,0,0,0-.847-1.506c-.8.195-1.625.433-2.527.718Zm96.149-5.917a2.173,2.173,0,0,1-.067-4.346l.115,0,.06.1a22.616,22.616,0,0,1,1.621,3.222l.042.107-.071.089a2.161,2.161,0,0,1-1.7.827Zm-.166-3.946a1.78,1.78,0,1,0,1.486,2.955,22.112,22.112,0,0,0-1.483-2.962Zm-26.167,3.946a3.791,3.791,0,1,0,0-.007Zm0-3.958a1.311,1.311,0,1,0,0-.007h0Zm-26.8,3.958a2.161,2.161,0,0,1-2.118-1.694l-.018-.081.046-.069c.254-.392.479-.758.676-1.08.24-.389.447-.725.617-.965.06-.084.131-.173.2-.261l.116-.148.073-.013a2.271,2.271,0,0,1,.409-.039,2.172,2.172,0,1,1,0,4.343Zm-1.713-1.7a1.785,1.785,0,1,0,1.447-2.234l-.024.031c-.066.083-.133.166-.188.243-.162.232-.366.56-.6.944-.185.3-.4.641-.633,1.009Zm41.359-5.962a2.675,2.675,0,1,0,0-.007Zm0-3.958a1.266,1.266,0,1,0,.006-.007h0ZM2755.2,1271.3a2.176,2.176,0,0,1-2.176-2.177.9.9,0,0,1,.008-.1c0-.073-.008-.1-.008-.135a2.176,2.176,0,1,1,4.353,0c0,.031,0,.062-.006.093,0,.073.006.105.006.139a2.176,2.176,0,0,1-2.176,2.169Zm0-4.188a1.786,1.786,0,0,0-1.783,1.784l.012.1-.008.088a1.788,1.788,0,0,0,1.751,1.823h.027a1.784,1.784,0,0,0,1.783-1.781l-.012-.1.012-.128a1.785,1.785,0,0,0-1.779-1.791h0Zm13.024-3.662a2.155,2.155,0,0,1-1.586-.695l-.26-.281.379-.05c1.1-.142,2.117-.232,3.119-.275l.381-.016-.208.319a2.168,2.168,0,0,1-1.822.989Zm-.977-.688a1.82,1.82,0,0,0,2.2-.2c-.712.034-1.438.1-2.2.189Z" transform="translate(-2611.609 -1097.201)" fill="#fff"/>
          <path id="Path_1400" data-name="Path 1400" d="M2889.249,1300.02s-2.58,10.94-3.5,15.691-57.935-6.183-59.875-11.407S2889.249,1300.02,2889.249,1300.02Z" transform="translate(-2699.989 -1117.509)" fill="#428c8a"/>
          <path id="Path_1401" data-name="Path 1401" d="M2831.681,1406.12s-22.661-.41-25.135-.831c-2.1-.358,16.413,5.557,14.426,9.187C2820.043,1416.142,2823.1,1408.347,2831.681,1406.12Z" transform="translate(-2689.545 -1174.058)" fill="#428c8a"/>
          <path id="Path_1402" data-name="Path 1402" d="M2709.589,1317.93a41.691,41.691,0,0,1,17.632-9.221c10.845-2.646,39.761,3.353,39.761,3.353S2732.967,1320.727,2709.589,1317.93Z" transform="translate(-2637.576 -1121.849)" fill="#428c8a"/>
          <path id="Path_2303" data-name="Path 2303" d="M2755.432,1136l-4.724-1.952a10.89,10.89,0,0,1-5.9-14.224l9.333-22.58a10.889,10.889,0,0,1,14.223-5.9h0l4.724,1.953a10.889,10.889,0,0,1,5.9,14.224h0l-9.333,22.579A10.889,10.889,0,0,1,2755.432,1136Z" transform="translate(-2656.039 -1005.056)" fill="#4e8932"/>
          <path id="Path_1403" data-name="Path 1403" d="M2786.478,1104.922s-23.984,28.935-22.608,32.115,9.809,10.83,14.853,10.477S2786.478,1104.922,2786.478,1104.922Z" transform="translate(-2666.69 -1012.791)" fill="#376022"/>
          <path id="Path_1404" data-name="Path 1404" d="M2721.387,1215.88a17.084,17.084,0,0,0-5.342,1.994c-7.175,4.143-27.249,17.18-18.471,28.906,6.146,8.171,33.484-2.324,36.571-4.736C2747.055,1231.961,2746.936,1211.01,2721.387,1215.88Z" transform="translate(-2629.953 -1071.979)" fill="#c7dde2"/>
          <ellipse id="Ellipse_164" data-name="Ellipse 164" cx="6.319" cy="9.123" rx="6.319" ry="9.123" transform="translate(118.444 53.935)" fill="#e1f4f9"/>
          <path id="Path_2302" data-name="Path 2302" d="M2782.463,1053.448l12.056-8.966a4.341,4.341,0,0,1,6.074.892h0l13.113,17.631a4.34,4.34,0,0,1-.892,6.074h0l-12.056,8.966a4.341,4.341,0,0,1-6.074-.892h0l-13.113-17.631A4.341,4.341,0,0,1,2782.463,1053.448Z" transform="translate(-2675.764 -979.879)" fill="#e1f4f9"/>
          <path id="Path_1405" data-name="Path 1405" d="M2786,1064.228l7.285,9.421s7.751-18.474,5.766-24.4C2796.825,1042.608,2785.772,1061.45,2786,1064.228Z" transform="translate(-2678.601 -982.144)" fill="#c7dde2"/>
          <ellipse id="Ellipse_165" data-name="Ellipse 165" cx="16.941" cy="19.822" rx="16.941" ry="19.822" transform="translate(116.254)" fill="#143528"/>
          <ellipse id="Ellipse_166" data-name="Ellipse 166" cx="17.003" cy="23.971" rx="17.003" ry="23.971" transform="translate(88.826 36.648)" fill="#e1f4f9"/>
          <path id="Path_1406" data-name="Path 1406" d="M2812.391,1179.486s-12.457-96.191,5.52-101.108,52.091,45.329,57.776,67.917,5.685,39.645.768,41.642S2816.553,1199.462,2812.391,1179.486Z" transform="translate(-2690.516 -998.358)" fill="#4e8932"/>
          <path id="Path_1407" data-name="Path 1407" d="M2745.632,986.605s5.686-11.524,14.291-11.37c.463.153,1.844,13.675,13.138,18.9,2.766,1.536,1.92,4.38,2.535,4.917s1.614.922,2.075-3.227,4.686-6.529,6.147-4.61-3.765,12.908-3.688,14.137,5.147.769,6.07.769,20.746-15.29,8.067-34.19-42.6-17.709-50.323-1.114C2741.868,976.349,2740.984,983.031,2745.632,986.605Z" transform="translate(-2655.116 -933.938)" fill="#143528"/>
          <path id="Path_1408" data-name="Path 1408" d="M2775.6,1078.389s-1.077.669-4.7-1.238c-.068-.041,13.084-9.571,15.619-7.17S2782.2,1079.249,2775.6,1078.389Z" transform="translate(-2670.495 -993.822)" fill="#c7dde2"/>
          <path id="Path_1409" data-name="Path 1409" d="M2735.056,1087.506s-10.926,76.428-3.793,80.164,20.623-27.857,19.22-58.793c-.22-11.536-4.177-16.763,1.125-17.913s17.354-15.213,13.978-19.477-8.331,5.532-19.625,9.1C2740.2,1082.32,2736.483,1080.936,2735.056,1087.506Z" transform="translate(-2647.915 -994.272)" fill="#e1f4f9"/>
          <path id="Path_1410" data-name="Path 1410" d="M2814,1099.837c11.042,18.573-7.562,69.382-7.8,68.66a41.53,41.53,0,0,1-28.333-12.324c4.681,6.626,17.451,17.272,33.139,17.875C2811.259,1174.824,2831.106,1114.536,2814,1099.837Z" transform="translate(-2674.233 -1010.061)" fill="#376022"/>
          <path id="Path_1411" data-name="Path 1411" d="M2758.518,1181.953l-15.631,24.414a4.038,4.038,0,0,0-.631,2.483c.193,2.573,1.04,7.872,4.734,9.239C2751.123,1219.619,2761.208,1185.364,2758.518,1181.953Z" transform="translate(-2655.11 -1054.151)" fill="#c7dde2"/>
          <path id="Path_1412" data-name="Path 1412" d="M2773.728,1195.938a24.155,24.155,0,0,1-2.244,17.524c-5,9.352-15.182,25.589-25.066,24.518-13.83-1.5-14.406-7.491-14.406-10.257s16.254-34.555,16.853-36.217C2749.38,1190.078,2769.076,1178.36,2773.728,1195.938Z" transform="translate(-2649.615 -1056.518)" fill="#e1f4f9"/>
          <path id="Path_1413" data-name="Path 1413" d="M2767.64,1189.081s-2.093,5.353-1.788,8.256c.726,6.888,21.116,22.357,21.869,21.13s3.982-6.282,4.292-7.358S2769.466,1187.8,2767.64,1189.081Z" transform="translate(-2667.768 -1057.95)" fill="#c7dde2"/>
          <path id="Path_1414" data-name="Path 1414" d="M2800.476,1088.142a10.682,10.682,0,0,0-10.951,5.255c-7.249,12.471-24.8,43.384-23.576,48.27,1.537,6.147,13.677,19.822,33.652,20.59C2799.886,1163.113,2830.077,1093.174,2800.476,1088.142Z" transform="translate(-2667.804 -1003.71)" fill="#4e8932"/>
        </g>
        <g id="boy" transform="translate(108.852 9.527)">
          <path id="Path_1418" data-name="Path 1418" d="M2059.721,1529.173s-6.06,42.279,2.468,42.279,49.508,3.227,49.877,0-30.977-13.138-35.587-18.209,4.841-20.514,4.379-21.666S2059.721,1529.173,2059.721,1529.173Z" transform="translate(-1952.006 -1250.111)" fill="#002d2d"/>
          <path id="Path_1419" data-name="Path 1419" d="M1916.311,1519.779s-14.674,19.642-11.217,24,19.131,20.027,28.35,20.258,23.51,1.613,23.51-1.613-24.311-14.858-26.215-20.913-2.135-10.9-1.9-18.04S1920.722,1512.317,1916.311,1519.779Z" transform="translate(-1869.821 -1242.921)" fill="#002d2d"/>
          <path id="Path_1420" data-name="Path 1420" d="M1983.352,1350.894c7.62-2.061,15.023,2.825,16.41,10.8,1.6,9.2.006,23.524-15.328,41.271-27.541,31.873-45.468,40.953-44.745,41.478s-15.667-10.386-15.667-10.386S1947.794,1360.512,1983.352,1350.894Z" transform="translate(-1880.267 -1154.134)" fill="#046c71"/>
          <path id="Path_1421" data-name="Path 1421" d="M1973.76,1382.542s-16.344,5.11,1.75,7.721,31.787-2.19,35.167,17.134c1.05,6-.33,3.219,0,3.751S2040.7,1349.527,1973.76,1382.542Z" transform="translate(-1903.336 -1166.188)" fill="#005959"/>
          <path id="Path_1422" data-name="Path 1422" d="M2000.634,1108.1s25.436,37.277,31.276,50.183-22.588,26.737-22.588,26.737-37.185-58.545-35.957-63S2000.634,1108.1,2000.634,1108.1Z" transform="translate(-1906.744 -1024.027)" fill="#88b4d3"/>
          <path id="Path_1423" data-name="Path 1423" d="M2019.478,1180.74a2.176,2.176,0,1,1,2.176-2.177A2.176,2.176,0,0,1,2019.478,1180.74Zm0-3.958a1.783,1.783,0,1,0,1.782,1.783A1.784,1.784,0,0,0,2019.478,1176.782ZM2006,1172.737a2.176,2.176,0,1,1,2.177-2.176,2.176,2.176,0,0,1-2.177,2.176Zm0-3.958a1.783,1.783,0,1,0,1.782,1.784,1.784,1.784,0,0,0-1.782-1.784Zm25.365,3.731-.144-.087a2.152,2.152,0,0,1-1.065-1.861,2.176,2.176,0,0,1,2.176-2.177,2.144,2.144,0,0,1,1.389.51l.126.106-.082.144a22.542,22.542,0,0,1-2.293,3.233Zm.968-3.731a1.785,1.785,0,0,0-1.782,1.784,1.759,1.759,0,0,0,.733,1.432,22.2,22.2,0,0,0,2.055-2.894,1.738,1.738,0,0,0-1-.321Zm-13.484-3.7a2.176,2.176,0,1,1,2.176-2.177,2.176,2.176,0,0,1-2.176,2.177Zm0-3.958a1.783,1.783,0,1,0,1.782,1.782,1.784,1.784,0,0,0-1.782-1.782Zm14.4-1.3a2.171,2.171,0,0,1-.715-4.223l.158-.055.079.148c.7,1.318,1.3,2.5,1.767,3.507l.071.151-.139.093a2.153,2.153,0,0,1-1.218.378Zm-.741-3.789a1.779,1.779,0,1,0,1.6,3.174c-.433-.927-.97-1.995-1.6-3.174Zm-25.594,3.789a2.177,2.177,0,1,1,2.177-2.177,2.176,2.176,0,0,1-2.177,2.177Zm0-3.958a1.783,1.783,0,1,0,1.783,1.782,1.785,1.785,0,0,0-1.783-1.782Zm12.85-3.7a2.176,2.176,0,1,1,2.177-2.176,2.176,2.176,0,0,1-2.177,2.176Zm0-3.958a1.783,1.783,0,1,0,1.782,1.783,1.784,1.784,0,0,0-1.782-1.783Zm-26.91,3.958a2.176,2.176,0,0,1-2.177-2.176.574.574,0,0,1,.007-.093c0-.075-.007-.106-.007-.136a2.177,2.177,0,1,1,4.353,0,.865.865,0,0,1-.007.093c0,.076.007.108.007.139a2.177,2.177,0,0,1-2.173,2.171Zm0-4.188a1.784,1.784,0,0,0-1.782,1.783c.007.058.01.081.012.1a.5.5,0,0,1-.007.088,1.787,1.787,0,0,0,1.752,1.821h.026a1.785,1.785,0,0,0,1.783-1.782c-.007-.061-.01-.082-.012-.1a.76.76,0,0,1,.007-.089,1.787,1.787,0,0,0-1.75-1.823h-.025Zm12.8-3.432a2.176,2.176,0,1,1,2.176-2.176,2.176,2.176,0,0,1-2.176,2.176Zm0-3.958a1.783,1.783,0,1,0,1.782,1.783,1.785,1.785,0,0,0-1.782-1.783Zm12.849-3.7a2.176,2.176,0,0,1,0-4.353.806.806,0,0,1,.116.01l.1.007.1.088q.849,1.321,1.7,2.653l.053.082-.034.093a2.183,2.183,0,0,1-2.029,1.416Zm0-3.958a1.783,1.783,0,1,0,1.629,2.492c-.531-.833-1.065-1.664-1.594-2.489a.058.058,0,0,0-.031-.009Zm-26.679,3.728a.637.637,0,0,1-.1-.008l-.019-.2-.021.2a.608.608,0,0,1-.093.008,2.176,2.176,0,1,1,0-4.353.762.762,0,0,1,.093.007c.077,0,.108-.007.139-.007a2.175,2.175,0,1,1,0,4.349Zm-.2-3.954a1.786,1.786,0,0,0-1.81,1.761v.017a1.784,1.784,0,0,0,1.782,1.782l.115-.013.074.008h.009a1.786,1.786,0,0,0,1.814-1.759v-.019a1.784,1.784,0,0,0-1.782-1.783c-.164.022-.159.01-.2,0Zm15.3-5.151a2.177,2.177,0,1,1,2.177-2.177,2.176,2.176,0,0,1-2.177,2.177Zm0-3.958a1.783,1.783,0,1,0,1.783,1.783,1.785,1.785,0,0,0-1.783-1.783Zm-26.794,3.958a2.177,2.177,0,1,1,2.177-2.177,2.176,2.176,0,0,1-2.177,2.177Zm0-3.958a1.783,1.783,0,1,0,1.782,1.783,1.784,1.784,0,0,0-1.782-1.783Zm12.734-3.7a2.176,2.176,0,0,1-2.177-2.176.618.618,0,0,1,.007-.093c0-.074-.007-.105-.007-.136a2.177,2.177,0,0,1,4.353,0,.87.87,0,0,1-.007.093c0,.074.007.105.007.137a2.177,2.177,0,0,1-2.173,2.171Zm0-4.188a1.785,1.785,0,0,0-1.782,1.783c.007.06.01.082.012.1s0,.059-.007.089a1.787,1.787,0,0,0,1.752,1.822h.025a1.786,1.786,0,0,0,1.783-1.783c-.007-.06-.01-.082-.012-.1a.756.756,0,0,1,.007-.089,1.788,1.788,0,0,0-1.749-1.825h-.026Zm11.387-4.418a2.121,2.121,0,0,1-.287-.421l.338-.2.259.383Z" transform="translate(-1909.221 -1025.393)" fill="#fff"/>
          <path id="Path_1424" data-name="Path 1424" d="M2026.59,1103.266s9.733,48.89,9.425,64.563c-1.69,6.146-12.66.84-12.139-1.844S2021.777,1107.543,2026.59,1103.266Z" transform="translate(-1933.745 -1021.429)" fill="#678fa5"/>
          <path id="Path_2301" data-name="Path 2301" d="M2008.532,1033.821l2.261,1.306a10.459,10.459,0,0,1,3.829,14.287h0L2006,1064.347a10.459,10.459,0,0,1-14.288,3.828l-2.262-1.306a10.46,10.46,0,0,1-3.828-14.288l8.621-14.932A10.459,10.459,0,0,1,2008.532,1033.821Z" transform="translate(-1912.589 -983.389)" fill="#e1f4f9"/>
          <path id="Path_1425" data-name="Path 1425" d="M2005.658,1037.952s-1.585,10.873,19.409,16.922c.105-.182,9.093-12.5.489-13.805S2005.658,1037.952,2005.658,1037.952Z" transform="translate(-1924.085 -986.36)" fill="#c7dde2"/>
          <path id="Path_1426" data-name="Path 1426" d="M2057.407,929.345s10.766,16.717,1.734,27.9S2041.77,933.255,2057.407,929.345Z" transform="translate(-1947.188 -928.046)" fill="#143528"/>
          <g id="Laptop" transform="translate(142.535 86.544)">
            <path id="Path_2300" data-name="Path 2300" d="M2138.795,1268.572h61.439a1.459,1.459,0,0,1,1.458,1.459v6a1.459,1.459,0,0,1-1.458,1.459h-61.439a1.459,1.459,0,0,1-1.459-1.459v-6A1.459,1.459,0,0,1,2138.795,1268.572Z" transform="translate(-2137.336 -1196.731)" fill="#063d3f"/>
            <path id="Path_2299" data-name="Path 2299" d="M2285.781,1113.473l2.62.636a1.425,1.425,0,0,1,1.048,1.722l-17.953,73.886a1.425,1.425,0,0,1-1.721,1.048l-2.62-.637a1.426,1.426,0,0,1-1.048-1.722h0l17.953-73.886A1.425,1.425,0,0,1,2285.781,1113.473Z" transform="translate(-2206.454 -1113.432)" fill="#063d3f"/>
          </g>
          <ellipse id="Ellipse_170" data-name="Ellipse 170" cx="20.834" cy="27.438" rx="20.834" ry="27.438" transform="translate(65.292 18.248) rotate(-19.322)" fill="#e1f4f9"/>
          <ellipse id="Ellipse_171" data-name="Ellipse 171" cx="6.234" cy="10.493" rx="6.234" ry="10.493" transform="matrix(0.824, -0.567, 0.567, 0.824, 64.008, 44.062)" fill="#e1f4f9"/>
          <path id="Path_1427" data-name="Path 1427" d="M1973.289,971.219a11.091,11.091,0,0,1,4.445-11.075c7.883-5.631,21.853-16.691,22.951-25.038,1.536-11.679-8.643-8.182-9.8-7.721s-3,1.383-12.792,1.383-24.317-1.037-33.882,13.83-1.844,33.99,16.134,39.99c5.218,1.966,5.992,3.918,6.569,4.495s4.306-3.627,4.662-4.584-19.414,1.7-11.692-11.551c2.414-3.485,9.8.346,12.1,4.61,1.959,2.766,2.19-.463,1.844-1.844C1973.7,973.174,1973.5,972.344,1973.289,971.219Z" transform="translate(-1888.89 -926.54)" fill="#143528"/>
          <path id="Path_1428" data-name="Path 1428" d="M1925.734,1094.073a27.381,27.381,0,0,0-5.245-16.711c-8.044-11.038-24.353-26.256-44.142-5.983-28.35,29.042-44.485,64.768-46.328,103.951-1.283,27.262,44.617,21.387,72.667,15.288a27.383,27.383,0,0,0,21.559-26.182Z" transform="translate(-1829.779 -998.967)" fill="#88b4d3"/>
          <path id="Path_1429" data-name="Path 1429" d="M1856.22,1195.558l-.424-.029c-1.019-.073-2.013-.164-2.954-.271l-.42-.046.308-.29a2.161,2.161,0,0,1,3.239.3Zm-2.825-.635c.622.066,1.265.125,1.921.175A1.8,1.8,0,0,0,1853.4,1194.923Zm39.893-3.913a.618.618,0,0,1-.093-.007h-.05a.622.622,0,0,1-.093.007,2.177,2.177,0,1,1,0-4.353.622.622,0,0,1,.093.007h.05a.574.574,0,0,1,.093-.007,2.177,2.177,0,0,1,0,4.353Zm-.2-3.953a1.787,1.787,0,0,0-1.813,1.759v.018a1.784,1.784,0,0,0,1.782,1.782l.039,0a.572.572,0,0,1,.153,0h.007a1.786,1.786,0,0,0,1.813-1.76v-.018a1.784,1.784,0,0,0-1.782-1.782.461.461,0,0,1-.192,0Zm-26.02,3.953a2.177,2.177,0,1,1,2.176-2.177A2.176,2.176,0,0,1,1867.07,1191.01Zm0-3.957a1.782,1.782,0,1,0,1.783,1.782,1.784,1.784,0,0,0-1.783-1.782Zm-26.978,3.957a2.177,2.177,0,0,1-2.177-2.177,2.137,2.137,0,0,1,.117-.673,2.174,2.174,0,0,1,4.3.444,2.131,2.131,0,0,1-.116.673A2.169,2.169,0,0,1,1840.093,1191.01Zm.068-4.188a1.783,1.783,0,0,0-1.747,1.438,1.824,1.824,0,0,0-.1.574,1.782,1.782,0,0,0,3.531.343,1.86,1.86,0,0,0,.1-.573,1.784,1.784,0,0,0-1.782-1.781Zm68.224-4.917a2.176,2.176,0,1,1,2.176-2.176,2.176,2.176,0,0,1-2.176,2.176Zm0-3.958a1.783,1.783,0,1,0,1.782,1.782,1.784,1.784,0,0,0-1.782-1.782Zm-26.8,3.958a2.176,2.176,0,1,1,2.176-2.176,2.177,2.177,0,0,1-2.176,2.176Zm0-3.958a1.783,1.783,0,1,0,1.782,1.782,1.784,1.784,0,0,0-1.782-1.782Zm-26.334,3.958a2.176,2.176,0,1,1,2.177-2.176,2.176,2.176,0,0,1-2.177,2.176Zm0-3.958a1.783,1.783,0,1,0,1.782,1.782,1.784,1.784,0,0,0-1.782-1.782Zm-25.024,3.14-.155-.716a18.014,18.014,0,0,1-.3-1.8l-.082-.724.435.586a2.094,2.094,0,0,1,.324,1.958Zm91-6.847a2.176,2.176,0,1,1,1.976-3.079l.031.067-.02.07c-.232.8-.527,1.651-.9,2.591l-.028.068-.064.034a2.165,2.165,0,0,1-.99.249Zm0-3.958a1.783,1.783,0,0,0,0,3.566,1.743,1.743,0,0,0,.747-.173c.347-.872.621-1.662.841-2.412a1.786,1.786,0,0,0-1.585-.981Zm-26.909,3.958a2.176,2.176,0,0,1-2.177-2.176.756.756,0,0,1,.007-.093c0-.077-.007-.108-.007-.139a2.176,2.176,0,1,1,4.353,0,.837.837,0,0,1-.007.093c0,.077.007.108.007.139a2.177,2.177,0,0,1-2.176,2.176Zm0-4.188a1.784,1.784,0,0,0-1.783,1.783c.006.061.009.082.011.1a.577.577,0,0,1-.007.088,1.787,1.787,0,0,0,1.754,1.82h.025a1.785,1.785,0,0,0,1.782-1.782c-.007-.061-.01-.082-.011-.105a.587.587,0,0,1,.006-.086,1.787,1.787,0,0,0-1.75-1.823Zm-26.219,4.188a2.176,2.176,0,1,1,2.177-2.176,2.177,2.177,0,0,1-2.177,2.176Zm0-3.958a1.783,1.783,0,1,0,1.782,1.783,1.785,1.785,0,0,0-1.782-1.783Zm-26.977,3.958a2.176,2.176,0,0,1-2.177-2.176,2.139,2.139,0,0,1,.116-.673,2.176,2.176,0,0,1,4.307.443,2.132,2.132,0,0,1-.116.673,2.167,2.167,0,0,1-2.13,1.734Zm.068-4.188a1.784,1.784,0,0,0-1.748,1.44,1.857,1.857,0,0,0-.1.573,1.781,1.781,0,0,0,3.529.344,1.843,1.843,0,0,0,.1-.574,1.784,1.784,0,0,0-1.782-1.783Zm66.153-3.661a2.176,2.176,0,1,1,2.177-2.177,2.177,2.177,0,0,1-2.177,2.177Zm0-3.958a1.783,1.783,0,1,0,1.782,1.783,1.785,1.785,0,0,0-1.782-1.783Zm-26.8,3.958a2.176,2.176,0,1,1,2.177-2.177,2.177,2.177,0,0,1-2.177,2.177Zm0-3.958a1.783,1.783,0,1,0,1.783,1.783,1.785,1.785,0,0,0-1.783-1.783Zm-26.333,3.958a2.176,2.176,0,1,1,2.176-2.177,2.177,2.177,0,0,1-2.176,2.177Zm0-3.958a1.783,1.783,0,1,0,1.782,1.783,1.785,1.785,0,0,0-1.782-1.783Zm65.978-3.7a2.176,2.176,0,1,1,2.177-2.176,2.176,2.176,0,0,1-2.177,2.176Zm0-3.958a1.783,1.783,0,1,0,1.783,1.783,1.785,1.785,0,0,0-1.783-1.783Zm-26.909,3.958a2.177,2.177,0,0,1-2.177-2.176.637.637,0,0,1,.008-.093c0-.074-.008-.105-.008-.136a2.176,2.176,0,0,1,4.353,0,.621.621,0,0,1-.008.093c0,.074.008.105.008.139a2.176,2.176,0,0,1-2.176,2.173Zm0-4.188a1.784,1.784,0,0,0-1.782,1.783c.007.06.01.081.011.1a.513.513,0,0,1-.007.088,1.787,1.787,0,0,0,1.754,1.821h.025a1.784,1.784,0,0,0,1.782-1.782c-.007-.061-.01-.082-.011-.1a.609.609,0,0,1,.008-.088,1.787,1.787,0,0,0-1.752-1.823h-.027Zm-26.219,4.188a2.176,2.176,0,1,1,2.176-2.176,2.176,2.176,0,0,1-2.176,2.176Zm0-3.958a1.783,1.783,0,1,0,1.783,1.783,1.785,1.785,0,0,0-1.783-1.783Zm-26.978,3.958a2.177,2.177,0,0,1-2.177-2.176,2.123,2.123,0,0,1,.114-.661,2.175,2.175,0,0,1,4.306.431,2.119,2.119,0,0,1-.116.672,2.168,2.168,0,0,1-2.127,1.733Zm.068-4.188a1.785,1.785,0,0,0-1.747,1.44l-.006.023a1.777,1.777,0,1,0,3.434.893,1.828,1.828,0,0,0,.1-.574,1.784,1.784,0,0,0-1.781-1.783Zm67.928,1.022a2.176,2.176,0,1,1,2.177-2.177,2.177,2.177,0,0,1-2.177,2.177Zm0-3.958a1.783,1.783,0,1,0,1.782,1.783,1.785,1.785,0,0,0-1.782-1.783Zm-26.794,3.727a2.176,2.176,0,1,1,2.176-2.176,2.176,2.176,0,0,1-2.176,2.176Zm0-3.958a1.783,1.783,0,1,0,1.782,1.783,1.784,1.784,0,0,0-1.782-1.783Zm-26.334,3.958a2.176,2.176,0,1,1,2.177-2.176,2.177,2.177,0,0,1-2.177,2.176Zm0-3.958a1.783,1.783,0,1,0,1.782,1.783,1.785,1.785,0,0,0-1.782-1.783Zm65.979-3.473a2.177,2.177,0,1,1,2.176-2.177,2.177,2.177,0,0,1-2.176,2.177Zm0-3.958a1.783,1.783,0,1,0,1.781,1.783,1.784,1.784,0,0,0-1.781-1.783h0Zm-26.911,3.728a2.176,2.176,0,1,1,2.176-2.176,2.177,2.177,0,0,1-2.176,2.176Zm0-3.958a1.783,1.783,0,1,0,1.782,1.783,1.784,1.784,0,0,0-1.782-1.783Zm-26.218,3.958a2.176,2.176,0,1,1,2.176-2.176,2.177,2.177,0,0,1-2.176,2.176Zm0-3.958a1.783,1.783,0,1,0,1.781,1.783,1.784,1.784,0,0,0-1.781-1.783Zm-26.979,3.958a2.177,2.177,0,0,1-2.177-2.176,2.135,2.135,0,0,1,.116-.673,2.174,2.174,0,0,1,4.3.443,2.127,2.127,0,0,1-.116.672,2.169,2.169,0,0,1-2.126,1.732Zm.068-4.188a1.783,1.783,0,0,0-1.747,1.439,1.837,1.837,0,0,0-.1.574,1.781,1.781,0,0,0,3.53.343,1.821,1.821,0,0,0,.1-.573,1.784,1.784,0,0,0-1.781-1.786Zm67.188,0a2.176,2.176,0,1,1,2.176-2.177,2.177,2.177,0,0,1-2.176,2.177Zm0-3.958a1.783,1.783,0,1,0,1.782,1.783,1.785,1.785,0,0,0-1.782-1.783Zm-26.794,3.727a2.176,2.176,0,1,1,2.176-2.176,2.177,2.177,0,0,1-2.176,2.176Zm0-3.958a1.783,1.783,0,1,0,1.781,1.783,1.784,1.784,0,0,0-1.781-1.783Zm-26.334,3.958a2.176,2.176,0,1,1,2.176-2.176,2.177,2.177,0,0,1-2.176,2.176Zm0-3.958a1.783,1.783,0,1,0,1.782,1.783,1.784,1.784,0,0,0-1.782-1.783Zm65.978-3.476a2.176,2.176,0,1,1,2.177-2.176,2.177,2.177,0,0,1-2.177,2.176Zm0-3.958a1.783,1.783,0,1,0,1.782,1.783,1.785,1.785,0,0,0-1.782-1.783Zm-26.91,3.728a2.176,2.176,0,1,1,2.176-2.176,2.177,2.177,0,0,1-2.176,2.176Zm0-3.958a1.783,1.783,0,1,0,1.782,1.783,1.785,1.785,0,0,0-1.782-1.783Zm-26.218,3.958a2.176,2.176,0,1,1,2.177-2.176,2.177,2.177,0,0,1-2.177,2.176Zm0-3.958a1.783,1.783,0,1,0,1.781,1.783,1.785,1.785,0,0,0-1.781-1.783h0Zm-26.979,3.958a2.177,2.177,0,0,1-2.177-2.176,2.134,2.134,0,0,1,.116-.672,2.174,2.174,0,0,1,4.3.443,2.144,2.144,0,0,1-.116.674,2.168,2.168,0,0,1-2.125,1.729Zm.068-4.188a1.784,1.784,0,0,0-1.747,1.44,1.834,1.834,0,0,0-.1.573,1.781,1.781,0,0,0,3.53.344,1.829,1.829,0,0,0,.1-.575,1.784,1.784,0,0,0-1.781-1.788Zm67.188,0a3.164,3.164,0,1,0,0-.005Zm0-3.958a1.784,1.784,0,1,0,1.782,1.784,1.785,1.785,0,0,0-1.782-1.784Zm-26.794,3.728a2.176,2.176,0,1,1,2.176-2.176,2.177,2.177,0,0,1-2.176,2.176Zm0-3.958a1.783,1.783,0,1,0,1.781,1.783,1.785,1.785,0,0,0-1.781-1.783Zm-26.334,3.958a2.176,2.176,0,1,1,2.176-2.176,2.177,2.177,0,0,1-2.176,2.176Zm0-3.958a1.783,1.783,0,1,0,1.782,1.783,1.785,1.785,0,0,0-1.782-1.783Zm65.978-3.473a2.176,2.176,0,1,1,2.177-2.176,2.176,2.176,0,0,1-2.177,2.176Zm0-3.958a1.783,1.783,0,1,0,1.781,1.783,1.785,1.785,0,0,0-1.781-1.783h0Zm-79.842,3.751.164-.395c.381-.917.791-1.877,1.256-2.934l.176-.4.182.4a2.459,2.459,0,0,1-1.373,3.2Zm1.567-2.683c-.3.688-.578,1.337-.841,1.963a1.773,1.773,0,0,0,.757-1.133,1.839,1.839,0,0,0,.1-.575,1.7,1.7,0,0,0-.018-.261Zm51.365,2.661a2.815,2.815,0,1,0,0-.006Zm0-3.958a1.3,1.3,0,1,0,0-.006h0Zm-26.218,3.958a2.9,2.9,0,1,0,0-.006Zm0-3.958a1.276,1.276,0,1,0,0-.006h0Zm39.653-3.814a2.88,2.88,0,1,0,0-.006Zm0-3.958a1.289,1.289,0,1,0,0-.006h0Zm-26.911,3.958a2.88,2.88,0,1,0,0-.006Zm0-3.958a1.324,1.324,0,1,0,0-.006h0Zm-26.333,3.958a2.88,2.88,0,1,0,0-.006Zm0-3.958a1.285,1.285,0,1,0,0-.006h0Zm66.093-3.7a2.812,2.812,0,1,0,0-.007Zm0-3.958a1.371,1.371,0,1,0,0-.007h0Zm-27.024,3.958a2.179,2.179,0,0,1-2.176-2.176,2.53,2.53,0,0,1,2.291-2.4,2.177,2.177,0,0,1,2.176,2.177,2.514,2.514,0,0,1-2.29,2.4Zm.115-4.189a1.773,1.773,0,0,0-1.654,1.128,1.807,1.807,0,0,0-.244.885,1.845,1.845,0,1,0,1.9-2.02h0Zm-26.334,4.189a2.552,2.552,0,1,0,0-.007Zm0-3.958a1.371,1.371,0,1,0,0-.007h0Zm41.314-1.3a2.454,2.454,0,1,0,0-.008Zm0-3.958a1.311,1.311,0,1,0,0-.007h0Zm-26.8,3.958a2.454,2.454,0,1,0,0-.008Zm0-3.958a1.285,1.285,0,1,0,.005-.007h0Zm-26.333,3.958a2.177,2.177,0,0,1-2.176-2.177,2.125,2.125,0,0,1,.077-.548l.023-.055c.126-.2.256-.4.384-.6l.308-.463a2.137,2.137,0,0,1,1.383-.509,2.173,2.173,0,1,1,0,4.346Zm-1.725-2.593a1.708,1.708,0,0,0-.057.419,1.782,1.782,0,1,0,1.782-1.782,1.749,1.749,0,0,0-1.108.4l-.252.393c-.122.181-.245.371-.365.563Zm67.7-5.069a4.21,4.21,0,1,0,0-.01Zm0-3.958a1.276,1.276,0,1,0,.007-.01h0Zm-26.909,3.958a2.177,2.177,0,0,1-2.177-2.176.9.9,0,0,1,.007-.093c0-.075-.007-.106-.007-.139a2.176,2.176,0,0,1,4.353,0,.692.692,0,0,1-.007.093c0,.076.007.107.007.139a2.176,2.176,0,0,1-2.174,2.167Zm0-4.189a1.784,1.784,0,0,0-1.782,1.783c.006.061.009.082.011.1a.814.814,0,0,1-.007.088,1.787,1.787,0,0,0,1.753,1.821h.026a1.784,1.784,0,0,0,1.782-1.782c-.007-.062-.01-.082-.011-.1a.766.766,0,0,1,.006-.087,1.786,1.786,0,0,0-1.739-1.832h-.036Zm-26.219,4.189a2.718,2.718,0,1,0,0-.01Zm0-3.958a1.276,1.276,0,1,0,.007-.01h-.006Zm39.013-3.661a2.727,2.727,0,1,0,0-.01Zm0-3.958a1.3,1.3,0,1,0,.006-.01h0Zm-26.565,3.727a2.718,2.718,0,1,0,0-.01Zm0-3.958a1.345,1.345,0,1,0,0-.01h0Zm39.414-3.473a2.172,2.172,0,0,1-.7-4.229l.133-.046.086.112c.35.453.689.905,1.013,1.348.393.54.778,1.116,1.177,1.76l.073.118-.087.108a2.16,2.16,0,0,1-1.693.818Zm-.7-3.8a1.777,1.777,0,0,0,.7,3.411,1.761,1.761,0,0,0,1.3-.574c-.366-.587-.722-1.116-1.084-1.613-.293-.415-.6-.823-.916-1.236Zm-25.978,3.574a.789.789,0,0,1-.093-.008l-.023-.2.009.2-.032,0a.78.78,0,0,1-.093.008,2.176,2.176,0,1,1,0-4.353.526.526,0,0,1,.095.008c.072,0,.1-.008.136-.008a2.17,2.17,0,1,1,0,4.341Zm-.2-3.954a1.787,1.787,0,0,0-1.814,1.759v.02a1.784,1.784,0,0,0,1.782,1.782.975.975,0,0,1,.106-.012h.018a.482.482,0,0,1,.07.007h.007a1.787,1.787,0,0,0,1.811-1.762v-.016a1.784,1.784,0,0,0-1.782-1.783l-.1.012-.089-.008Zm15.293-5.152a3.607,3.607,0,1,0,0-.011Zm0-3.956a1.273,1.273,0,1,0,.009-.012h-.005Zm-26.8,3.956a2.165,2.165,0,0,1-2.136-2.584l.013-.068.053-.046c.749-.628,1.414-1.153,2.035-1.606l.056-.04.068,0a2.166,2.166,0,0,1-.085,4.33Zm-1.76-2.443a1.76,1.76,0,0,0-.022.269,1.782,1.782,0,1,0,1.924-1.77c-.578.414-1.2.908-1.9,1.489Zm14.494-5.221a2.183,2.183,0,0,1-1.964-1.25l-.112-.235.256-.042a19.834,19.834,0,0,1,3.71-.278l.259,0-.075.249a2.157,2.157,0,0,1-2.071,1.54Zm-1.477-1.187a1.788,1.788,0,0,0,1.477.795,1.764,1.764,0,0,0,1.6-1.025h-.089a19.7,19.7,0,0,0-2.986.218Z" transform="translate(-1829.621 -998.772)" fill="#fff"/>
          <g id="Group_594" data-name="Group 594" transform="translate(0 165.273)">
            <path id="Path_1430" data-name="Path 1430" d="M2098.285,1567.594c.006.021,0,.052.022.057C2098.352,1567.661,2098.335,1567.637,2098.285,1567.594Z" transform="translate(-1973.833 -1436.013)" fill="#fdbd28"/>
            <path id="Path_1431" data-name="Path 1431" d="M1984.65,1349.855c8.464-22.076,4.554-36.009-.572-44.023a14.655,14.655,0,0,0-3.157-3.513c-25.883-33.287-150.862-12.405-150.862-12.405-5.246,54.844,30.292,52.719,40.281,53.334,5.467.337,41.97-.755,72.278-7.054-8.881,30.591-7.28,67.6-7.28,67.6s17.7,10.409,18.647,11.238C1953.7,1413.89,1969.731,1388.764,1984.65,1349.855Z" transform="translate(-1829.532 -1283.447)" fill="#046c71"/>
          </g>
          <path id="Path_1432" data-name="Path 1432" d="M1917.154,1524.412" transform="translate(-1876.579 -1247.554)" fill="none" stroke="#231f20" stroke-miterlimit="10" stroke-width="1.228"/>
          <path id="Path_1433" data-name="Path 1433" d="M1871.786,1169.207s1.8-42.506,21.4-64.574c-25.405,16.3-26.634,66.781-26.634,66.781,20.9,3.994,52.713-15.112,52.867-16.063l.2-1.1C1910.905,1159.993,1888.358,1172.374,1871.786,1169.207Z" transform="translate(-1849.408 -1022.163)" fill="#678fa5"/>
          <path id="Path_1434" data-name="Path 1434" d="M2114.969,1078.011s-54.549,70.159-29.654,74.306,35.906-37.185,41.079-62.386c1.638-5.378,24.687-14.136,27.453-21.973s-17.365-25.969-28.12-.615c-1.69,4-.05-6.3.666-10.141s-.051-6.454-2.2-4.456-6.1,13.592-7.126,15.827C2115.584,1071.8,2116.262,1076.32,2114.969,1078.011Z" transform="translate(-1963.375 -993.934)" fill="#e1f4f9"/>
          <path id="Path_1435" data-name="Path 1435" d="M2080.192,1229.991s12.513,16.485,24.209,10c.1-.108-9.6,12.873-21.487,7.055C2078.067,1244.457,2076.094,1239.826,2080.192,1229.991Z" transform="translate(-1962.928 -1089.472)" fill="#c7dde2"/>
          <path id="Path_1436" data-name="Path 1436" d="M1830.473,1290.344s38.782-6.094,74.74-6.094,32.384.115,34.919,0S1825.225,1301.28,1830.473,1290.344Z" transform="translate(-1829.946 -1118.604)" fill="#005959"/>
          <path id="Path_1437" data-name="Path 1437" d="M1892.7,1178.354s-15.367,35.956,11.678,38.416,78.06,0,81.9,0,31.039,3.217,35.649,2.151,3.074-16.134-15.212-15.674-12.908,3.074-24.739-2-44.869-10.757-48.249-11.218.56-15.343.922-16.948C1937.723,1159.436,1910.525,1143.935,1892.7,1178.354Z" transform="translate(-1861.115 -1050.547)" fill="#e1f4f9"/>
          <path id="Path_1438" data-name="Path 1438" d="M1877.831,1154.963s3.073-72.528,44.868-77.291c12.294-1.076,15.982,7.472,6.608,59.591C1929.154,1138.214,1898.729,1158.958,1877.831,1154.963Z" transform="translate(-1855.465 -1007.642)" fill="#88b4d3"/>
          <path id="Path_1439" data-name="Path 1439" d="M1897.072,1154.261l.181-.37a2.161,2.161,0,0,1,3.219-.809l.332.24-.395.109c-.895.249-1.852.49-2.934.741Zm2.13-1.2a1.756,1.756,0,0,0-1.34.615c.7-.165,1.357-.329,1.974-.495a1.717,1.717,0,0,0-.634-.12Zm-13.475-3.814a2.176,2.176,0,1,1,2.176-2.176,2.176,2.176,0,0,1-2.176,2.176h0Zm0-3.957a1.782,1.782,0,1,0,1.782,1.782,1.784,1.784,0,0,0-1.782-1.782Zm26.423,3.9-.066-.017a2.173,2.173,0,1,1,2.733-2.1,2.152,2.152,0,0,1-.24.975l-.031.061-.062.029q-1.115.519-2.269,1.019Zm.486-3.9a1.778,1.778,0,0,0-.516,3.48q1.081-.474,2.13-.96a1.749,1.749,0,0,0,.169-.739,1.785,1.785,0,0,0-1.783-1.782Zm12.85-3.707a2.176,2.176,0,1,1,2.176-2.176,2.177,2.177,0,0,1-2.176,2.176Zm0-3.957a1.782,1.782,0,1,0,1.782,1.783,1.784,1.784,0,0,0-1.782-1.783Zm-27.026,3.957a2.177,2.177,0,0,1-2.177-2.176,2.532,2.532,0,0,1,2.29-2.406,2.177,2.177,0,0,1,2.177,2.177,2.528,2.528,0,0,1-2.29,2.4Zm.115-4.187a1.772,1.772,0,0,0-1.653,1.128,1.77,1.77,0,0,0,1.538,2.667,1.772,1.772,0,0,0,1.654-1.127,1.771,1.771,0,0,0-1.539-2.668Zm14.981-1.068a2.176,2.176,0,1,1,2.176-2.176,2.176,2.176,0,0,1-2.176,2.176Zm0-3.958a1.783,1.783,0,1,0,1.782,1.783,1.785,1.785,0,0,0-1.782-1.783Zm-26.8,3.958a2.176,2.176,0,1,1,2.176-2.176,2.176,2.176,0,0,1-2.176,2.176Zm0-3.958a1.783,1.783,0,1,0,1.782,1.783,1.784,1.784,0,0,0-1.782-1.783Zm39.644-3.7a2.176,2.176,0,1,1,2.177-2.177,2.176,2.176,0,0,1-2.177,2.177Zm0-3.958a1.783,1.783,0,1,0,1.782,1.782,1.784,1.784,0,0,0-1.782-1.782Zm-26.909,3.958a2.177,2.177,0,0,1-2.177-2.177.865.865,0,0,1,.007-.093c0-.074-.007-.106-.007-.139a2.177,2.177,0,0,1,4.353,0,.9.9,0,0,1-.007.093c0,.074.007.105.007.136a2.177,2.177,0,0,1-2.176,2.176Zm0-4.189a1.786,1.786,0,0,0-1.784,1.782c.007.061.01.082.012.1a.789.789,0,0,1-.007.089,1.786,1.786,0,0,0,1.751,1.822h.027a1.785,1.785,0,0,0,1.782-1.783c-.007-.06-.01-.082-.012-.1a.6.6,0,0,1,.007-.088,1.786,1.786,0,0,0-1.75-1.822h-.028Zm12.793-3.43a2.176,2.176,0,1,1,2.176-2.176,2.176,2.176,0,0,1-2.176,2.176Zm0-3.958a1.783,1.783,0,1,0,1.783,1.782,1.784,1.784,0,0,0-1.783-1.782Zm12.85-3.7a2.176,2.176,0,1,1,2.176-2.176,2.176,2.176,0,0,1-2.176,2.176Zm0-3.958a1.783,1.783,0,1,0,1.782,1.783,1.785,1.785,0,0,0-1.782-1.783Zm-26.68,3.727a.754.754,0,0,1-.093-.007l-.022-.2-.019.2a.724.724,0,0,1-.1.007,2.176,2.176,0,1,1,0-4.353.817.817,0,0,1,.1.007c.072,0,.1-.007.135-.007a2.174,2.174,0,1,1,0,4.349Zm-.2-3.954a1.788,1.788,0,0,0-1.815,1.761v.018a1.785,1.785,0,0,0,1.782,1.783l.115-.013.075.008h.008a1.787,1.787,0,0,0,1.814-1.76v-.018a1.786,1.786,0,0,0-1.783-1.783l-.1.012-.087-.007Zm15.294-5.151a2.176,2.176,0,1,1,2.176-2.176,2.177,2.177,0,0,1-2.176,2.176Zm0-3.958a1.783,1.783,0,1,0,1.782,1.783,1.785,1.785,0,0,0-1.782-1.783Zm12.849-3.7a2.176,2.176,0,1,1,2.177-2.176,2.176,2.176,0,0,1-2.177,2.176Zm0-3.958a1.783,1.783,0,1,0,1.782,1.782,1.784,1.784,0,0,0-1.782-1.782Zm-26.91,3.958a2.156,2.156,0,0,1-1.274-.417l-.154-.113.107-.156c.766-1.133,1.589-2.256,2.445-3.339l.126-.162.156.133a2.172,2.172,0,0,1,.768,1.649.674.674,0,0,1-.007.093c0,.074.007.105.007.137a2.176,2.176,0,0,1-2.174,2.172Zm-.883-.633a1.756,1.756,0,0,0,.883.24,1.784,1.784,0,0,0,1.782-1.783.223.223,0,0,0,0-.039c0-.021-.006-.043-.007-.064a.52.52,0,0,1,.007-.089,1.777,1.777,0,0,0-.479-1.246c-.759.966-1.491,1.968-2.182,2.977Zm13.907-7.217a2.176,2.176,0,1,1,2.176-2.176,2.177,2.177,0,0,1-2.176,2.176Zm0-3.958a1.783,1.783,0,1,0,1.783,1.783,1.785,1.785,0,0,0-1.783-1.783Zm25.388,3.791-.378-.292a2.15,2.15,0,0,1-.514-2.87l.251-.4.108.457c.188.8.347,1.687.471,2.629Zm-.787-2.42a1.731,1.731,0,0,0-.05.411,1.755,1.755,0,0,0,.3.977c-.07-.486-.153-.95-.245-1.392Zm-11.751-5.077a2.177,2.177,0,0,1-2.176-2.177,2.152,2.152,0,0,1,.2-.893l.043-.093.1-.019c.969-.182,1.79-.309,2.585-.4.258-.023.506-.039.752-.054l.1-.006.063.076a2.145,2.145,0,0,1,.513,1.389,2.177,2.177,0,0,1-2.173,2.171Zm-1.661-2.815a1.753,1.753,0,0,0-.122.639,1.782,1.782,0,1,0,3.565,0,1.746,1.746,0,0,0-.36-1.061c-.208.013-.42.027-.634.046-.75.083-1.532.2-2.446.372Z" transform="translate(-1858.536 -1007.451)" fill="#fff"/>
          <path id="Path_1440" data-name="Path 1440" d="M2093.7,1294.335s1.331-4.869-10.248-2.421c-8.186,1.731-4.2,12.331,4.255,15.712s29.951-1.991,33.107,7.839C2120.948,1315.81,2115.847,1300.021,2093.7,1294.335Z" transform="translate(-1963.462 -1122.35)" fill="#005959"/>
        </g>
        <g id="chair_table" data-name="chair table" transform="translate(81.869 101.607)">
          <path id="Path_1444" data-name="Path 1444" d="M2430.7,1290.059H2095.2a6.548,6.548,0,0,0-.582,13.07v145.633a4.677,4.677,0,1,0,9.354,0v-145.6h308.177v145.6a4.677,4.677,0,1,0,9.354,0v-145.6h9.209a6.55,6.55,0,0,0,0-13.1Z" transform="translate(-1941.675 -1213.803)" fill="#386321"/>
          <g id="Group_595" data-name="Group 595" transform="translate(493.337)">
            <path id="Path_1445" data-name="Path 1445" d="M2839.562,1506.637a1.681,1.681,0,0,1-.338-.035,1.639,1.639,0,0,1-1.27-1.939h0l17.465-83.538a21.791,21.791,0,0,1,42.891.4l15.849,83.162a1.639,1.639,0,0,1-3.22.614l-15.847-83.157a18.515,18.515,0,0,0-36.465-.347l-17.462,83.532A1.64,1.64,0,0,1,2839.562,1506.637Z" transform="translate(-2837.318 -1274.658)" fill="#4e8932"/>
            <path id="Path_1446" data-name="Path 1446" d="M2842.4,1262.04a5.777,5.777,0,0,1-.033-11.554h0l37-.232c17.551,0,30.444-19.349,33.689-50.5l7.209-69.194a5.775,5.775,0,0,1,6.342-5.146h0a5.776,5.776,0,0,1,5.147,6.343h0l-7.21,69.195c-3.91,37.535-21.208,60.852-45.141,60.852l-36.968.232Z" transform="translate(-2836.621 -1125.385)" fill="#88b4d3"/>
          </g>
          <g id="Group_596" data-name="Group 596" transform="translate(0 3.796)">
            <path id="Path_1447" data-name="Path 1447" d="M1885.4,1514.835a1.639,1.639,0,0,1-1.6-1.3l-17.463-83.539a18.515,18.515,0,0,0-36.465.36l-15.845,83.149a1.636,1.636,0,0,1-1.912,1.3h-.005a1.638,1.638,0,0,1-1.3-1.915h0l15.844-83.154a21.791,21.791,0,0,1,42.89-.417L1887,1512.86a1.639,1.639,0,0,1-1.268,1.939h0A1.63,1.63,0,0,1,1885.4,1514.835Z" transform="translate(-1792.476 -1282.856)" fill="#4e8932"/>
            <path id="Path_1448" data-name="Path 1448" d="M1878.276,1270h-54.63c-23.934,0-41.231-23.318-45.141-60.852l-7.209-69.194a5.775,5.775,0,0,1,5.144-6.344h0a5.775,5.775,0,0,1,6.344,5.143v0l7.209,69.194c3.245,31.149,16.14,50.5,33.652,50.5h54.63a5.776,5.776,0,0,1,5.776,5.775h0a5.776,5.776,0,0,1-5.776,5.777Z" transform="translate(-1771.264 -1133.582)" fill="#88b4d3"/>
          </g>
        </g>
      </g>
    </g>
    <g id="Group_133" data-name="Group 133" transform="translate(368.115 5560.163)">
      <g id="Ellipse_48" data-name="Ellipse 48" transform="translate(-0.115 -0.134)" fill="#085155" stroke="#5fb132" stroke-width="10">
        <circle cx="89.5" cy="89.5" r="89.5" stroke="none"/>
        <circle cx="89.5" cy="89.5" r="84.5" fill="none"/>
      </g>
      <text id="Discovery_Goals" data-name="Discovery &amp;
Goals" transform="translate(87.885 84.866)" fill="#fff" font-size="21" font-family="SegoeUI-Bold, Segoe UI" font-weight="700" letter-spacing="0.006em"><tspan x="-60.722" y="0">Discovery &amp;</tspan><tspan x="-27.268" y="28">Goals</tspan></text>
    </g>
    <g id="Group_137" data-name="Group 137" transform="translate(1234.412 5302.346)">
      <g id="Ellipse_48-2" data-name="Ellipse 48" transform="translate(-0.413 -0.317)" fill="#085155" stroke="#5fb132" stroke-width="10">
        <circle cx="89.5" cy="89.5" r="89.5" stroke="none"/>
        <circle cx="89.5" cy="89.5" r="84.5" fill="none"/>
      </g>
      <text id="Customer_Journeys" data-name="Customer
Journeys" transform="translate(87.588 84.683)" fill="#fff" font-size="21" font-family="SegoeUI-Bold, Segoe UI" font-weight="700" letter-spacing="0.006em"><tspan x="-47.874" y="0">Customer</tspan><tspan x="-44.367" y="28">Journeys</tspan></text>
    </g>
    <g id="Group_181" data-name="Group 181" transform="translate(1354.412 5560.346)">
      <g id="Ellipse_48-3" data-name="Ellipse 48" transform="translate(-0.413 -0.317)" fill="#085155" stroke="#5fb132" stroke-width="10">
        <circle cx="89.5" cy="89.5" r="89.5" stroke="none"/>
        <circle cx="89.5" cy="89.5" r="84.5" fill="none"/>
      </g>
      <text id="Automation_Management" data-name="Automation
Management" transform="translate(87.588 84.683)" fill="#fff" font-size="21" font-family="SegoeUI-Bold, Segoe UI" font-weight="700" letter-spacing="0.006em"><tspan x="-59.834" y="0">Automation</tspan><tspan x="-66.145" y="28">Management</tspan></text>
    </g>
    <g id="Group_134" data-name="Group 134" transform="translate(507.395 5301.772)">
      <g id="Ellipse_48-4" data-name="Ellipse 48" transform="translate(-0.394 0.257)" fill="#085155" stroke="#5fb132" stroke-width="10">
        <circle cx="89.5" cy="89.5" r="89.5" stroke="none"/>
        <circle cx="89.5" cy="89.5" r="84.5" fill="none"/>
      </g>
      <text id="Tools_Selection" data-name="Tools
Selection" transform="translate(87.606 84.257)" fill="#fff" font-size="21" font-family="SegoeUI-Bold, Segoe UI" font-weight="700" letter-spacing="0.006em"><tspan x="-25.883" y="0">Tools</tspan><tspan x="-45.579" y="28">Selection</tspan></text>
    </g>
    <g id="Group_180" data-name="Group 180" transform="translate(870.592 5227.775)">
      <g id="Ellipse_48-5" data-name="Ellipse 48" transform="translate(0.408 0.254)" fill="#085155" stroke="#5fb132" stroke-width="10">
        <ellipse cx="89" cy="89.5" rx="89" ry="89.5" stroke="none"/>
        <ellipse cx="89" cy="89.5" rx="84" ry="84.5" fill="none"/>
      </g>
      <text id="Content_Strategy" data-name="Content
Strategy" transform="translate(87.408 84.254)" fill="#fff" font-size="21" font-family="SegoeUI-Bold, Segoe UI" font-weight="700" letter-spacing="0.006em"><tspan x="-39.838" y="0">Content</tspan><tspan x="-41.824" y="28">Strategy</tspan></text>
    </g>
  </g>
</svg>
