<svg xmlns="http://www.w3.org/2000/svg" width="391.776" height="324.907" viewBox="0 0 391.776 324.907">
  <g id="Unbenannt-1" transform="translate(391.776 -937.331) rotate(90)">
    <path id="Path_60" data-name="Path 60" d="M2003.533,28.165A13.332,13.332,0,1,0,1990.2,14.832,13.339,13.339,0,0,0,2003.533,28.165Z" transform="translate(-955.132 -0.722)" fill="#fff"/>
    <path id="Path_61" data-name="Path 61" d="M2067.214,28.273A14.137,14.137,0,1,0,2053,14.162,14.07,14.07,0,0,0,2067.214,28.273Z" transform="translate(-985.353 0)" fill="#fff"/>
    <path id="Path_62" data-name="Path 62" d="M2135.22,27.688a10.043,10.043,0,0,0,10.22-10.064,10.22,10.22,0,1,0-20.44,0A10.075,10.075,0,0,0,2135.22,27.688Z" transform="translate(-1020.002 -3.513)" fill="#fff"/>
    <path id="Path_63" data-name="Path 63" d="M2199.72,7.4a10.262,10.262,0,0,0-10.22,10.324,10.221,10.221,0,0,0,20.44,0A10.263,10.263,0,0,0,2199.72,7.4Z" transform="translate(-1051.041 -3.561)" fill="#fff"/>
    <path id="Path_107" data-name="Path 107" d="M1812.887,92.277A10.739,10.739,0,1,0,1802.2,81.694,10.751,10.751,0,0,0,1812.887,92.277Z" transform="translate(-864.661 -34.071)" fill="#fff"/>
    <path id="Path_108" data-name="Path 108" d="M2199.72,71.8a10.194,10.194,0,1,0,10.22,10.324A10.262,10.262,0,0,0,2199.72,71.8Z" transform="translate(-1051.041 -34.552)" fill="#fff"/>
    <path id="Path_109" data-name="Path 109" d="M2264.02,92.188a10.194,10.194,0,1,0-10.22-10.064A10.208,10.208,0,0,0,2264.02,92.188Z" transform="translate(-1081.984 -34.552)" fill="#fff"/>
    <path id="Path_110" data-name="Path 110" d="M2327.22,92.285a11.543,11.543,0,1,0-11.62-11.413A11.547,11.547,0,0,0,2327.22,92.285Z" transform="translate(-1111.724 -33.301)" fill="#fff"/>
    <path id="Path_111" data-name="Path 111" d="M2392.82,71.8a10.194,10.194,0,1,0,10.22,10.324A10.262,10.262,0,0,0,2392.82,71.8Z" transform="translate(-1143.966 -34.552)" fill="#fff"/>
    <path id="Path_198" data-name="Path 198" d="M1812.694,199.7a10.632,10.632,0,0,0-10.894,10.583,10.842,10.842,0,1,0,21.685,0A10.544,10.544,0,0,0,1812.694,199.7Z" transform="translate(-864.469 -96.101)" fill="#fff"/>
    <path id="Path_199" data-name="Path 199" d="M1876.276,197.6a11.828,11.828,0,1,0,11.776,11.672A11.847,11.847,0,0,0,1876.276,197.6Z" transform="translate(-894.642 -95.091)" fill="#fff"/>
    <path id="Path_200" data-name="Path 200" d="M1939.618,195.5a12.918,12.918,0,1,0,12.865,12.762A12.82,12.82,0,0,0,1939.618,195.5Z" transform="translate(-924.574 -94.08)" fill="#fff"/>
    <path id="Path_201" data-name="Path 201" d="M2002.714,221.432a14.266,14.266,0,1,0-14.214-14.422A14.381,14.381,0,0,0,2002.714,221.432Z" transform="translate(-954.314 -92.829)" fill="#fff"/>
    <path id="Path_202" data-name="Path 202" d="M2070.92,200.7a10.194,10.194,0,1,0,0,20.388,10.194,10.194,0,1,0,0-20.388Z" transform="translate(-989.059 -96.583)" fill="#fff"/>
    <path id="Path_203" data-name="Path 203" d="M2135.22,221.088A10.194,10.194,0,1,0,2125,210.764,10.262,10.262,0,0,0,2135.22,221.088Z" transform="translate(-1020.002 -96.583)" fill="#fff"/>
    <path id="Path_204" data-name="Path 204" d="M2199.72,200.7a10.194,10.194,0,1,0,10.22,10.064A10.208,10.208,0,0,0,2199.72,200.7Z" transform="translate(-1051.041 -96.583)" fill="#fff"/>
    <path id="Path_205" data-name="Path 205" d="M2263.346,221.148a11.024,11.024,0,1,0-10.946-11.154A10.962,10.962,0,0,0,2263.346,221.148Z" transform="translate(-1081.31 -95.813)" fill="#fff"/>
    <path id="Path_206" data-name="Path 206" d="M2326.787,197.1a12.087,12.087,0,1,0,12.036,11.932A12.1,12.1,0,0,0,2326.787,197.1Z" transform="translate(-1111.291 -94.85)" fill="#fff"/>
    <path id="Path_207" data-name="Path 207" d="M2389.932,194.4a13.462,13.462,0,1,0,13.385,13.332A13.361,13.361,0,0,0,2389.932,194.4Z" transform="translate(-1141.079 -93.551)" fill="#fff"/>
    <path id="Path_253" data-name="Path 253" d="M2199.72,265.2a10.194,10.194,0,1,0,10.22,10.064A10.208,10.208,0,0,0,2199.72,265.2Z" transform="translate(-1051.041 -127.622)" fill="#fff"/>
    <path id="Path_306" data-name="Path 306" d="M1812.887,328.6a10.717,10.717,0,0,0-10.687,10.583,10.687,10.687,0,0,0,21.373,0A10.752,10.752,0,0,0,1812.887,328.6Z" transform="translate(-864.661 -158.132)" fill="#fff"/>
    <path id="Path_307" data-name="Path 307" d="M1876.613,327a11.413,11.413,0,1,0,11.413,11.413A11.446,11.446,0,0,0,1876.613,327Z" transform="translate(-894.979 -157.362)" fill="#fff"/>
    <path id="Path_308" data-name="Path 308" d="M1940.195,325.4a12.243,12.243,0,1,0,12.243,12.243A12.244,12.244,0,0,0,1940.195,325.4Z" transform="translate(-925.152 -156.592)" fill="#fff"/>
    <path id="Path_309" data-name="Path 309" d="M2003.677,323.9a13.2,13.2,0,1,0,13.177,13.073A13.208,13.208,0,0,0,2003.677,323.9Z" transform="translate(-955.277 -155.87)" fill="#fff"/>
    <path id="Path_310" data-name="Path 310" d="M2067.214,350.025A14.163,14.163,0,1,0,2053,335.862,14.114,14.114,0,0,0,2067.214,350.025Z" transform="translate(-985.353 -154.811)" fill="#fff"/>
    <path id="Path_311" data-name="Path 311" d="M2199.72,329.6a10.194,10.194,0,1,0,10.22,10.064A10.208,10.208,0,0,0,2199.72,329.6Z" transform="translate(-1051.041 -158.613)" fill="#fff"/>
    <path id="Path_312" data-name="Path 312" d="M2260.314,350.025a14.163,14.163,0,1,0-14.214-14.162A14.158,14.158,0,0,0,2260.314,350.025Z" transform="translate(-1078.279 -154.811)" fill="#fff"/>
    <path id="Path_313" data-name="Path 313" d="M2328.086,328.6a10.717,10.717,0,0,0-10.687,10.583,10.687,10.687,0,0,0,21.374,0A10.821,10.821,0,0,0,2328.086,328.6Z" transform="translate(-1112.59 -158.132)" fill="#fff"/>
    <path id="Path_314" data-name="Path 314" d="M2391.569,327a11.543,11.543,0,1,0,11.62,11.413A11.548,11.548,0,0,0,2391.569,327Z" transform="translate(-1142.715 -157.362)" fill="#fff"/>
    <path id="Path_357" data-name="Path 357" d="M2070.92,414.488a10.329,10.329,0,0,0,10.22-10.323,10.221,10.221,0,0,0-20.439,0A10.262,10.262,0,0,0,2070.92,414.488Z" transform="translate(-989.059 -189.652)" fill="#fff"/>
    <path id="Path_358" data-name="Path 358" d="M2134.594,392.5a10.894,10.894,0,1,0,10.894,10.894A10.926,10.926,0,0,0,2134.594,392.5Z" transform="translate(-1019.376 -188.882)" fill="#fff"/>
    <path id="Path_359" data-name="Path 359" d="M2199.72,394.1a10.043,10.043,0,0,0-10.22,10.064,10.22,10.22,0,1,0,20.44,0A10.075,10.075,0,0,0,2199.72,394.1Z" transform="translate(-1051.041 -189.652)" fill="#fff"/>
    <path id="Path_360" data-name="Path 360" d="M2260.555,386.8a13.852,13.852,0,1,0,13.955,13.851A13.937,13.937,0,0,0,2260.555,386.8Z" transform="translate(-1078.519 -186.139)" fill="#fff"/>
    <path id="Path_361" data-name="Path 361" d="M2328.52,414.488a10.262,10.262,0,0,0,10.22-10.323,10.221,10.221,0,0,0-20.44,0A10.262,10.262,0,0,0,2328.52,414.488Z" transform="translate(-1113.023 -189.652)" fill="#fff"/>
    <path id="Path_407" data-name="Path 407" d="M1813.031,457.5a10.583,10.583,0,1,0,10.479,10.583A10.616,10.616,0,0,0,1813.031,457.5Z" transform="translate(-864.806 -220.162)" fill="#fff"/>
    <path id="Path_408" data-name="Path 408" d="M2135.22,458a10.324,10.324,0,1,0,10.22,10.324A10.262,10.262,0,0,0,2135.22,458Z" transform="translate(-1020.002 -220.403)" fill="#fff"/>
    <path id="Path_409" data-name="Path 409" d="M2199.72,458a10.324,10.324,0,1,0,10.22,10.324A10.262,10.262,0,0,0,2199.72,458Z" transform="translate(-1051.041 -220.403)" fill="#fff"/>
    <path id="Path_410" data-name="Path 410" d="M2260.555,451.2a13.852,13.852,0,1,0,13.955,13.851A13.937,13.937,0,0,0,2260.555,451.2Z" transform="translate(-1078.519 -217.13)" fill="#fff"/>
    <path id="Path_459" data-name="Path 459" d="M2135.22,522.5A10.262,10.262,0,0,0,2125,532.824a10.221,10.221,0,0,0,20.44,0A10.262,10.262,0,0,0,2135.22,522.5Z" transform="translate(-1020.002 -251.442)" fill="#fff"/>
    <path id="Path_495" data-name="Path 495" d="M2199.72,587a10.194,10.194,0,1,0,10.22,10.324A10.262,10.262,0,0,0,2199.72,587Z" transform="translate(-1051.041 -282.481)" fill="#fff"/>
    <path id="Path_533" data-name="Path 533" d="M2328.279,671.806a10.453,10.453,0,1,0-10.479-10.324A10.417,10.417,0,0,0,2328.279,671.806Z" transform="translate(-1112.782 -313.231)" fill="#fff"/>
    <path id="Path_543" data-name="Path 543" d="M2006.42,736.288a10.194,10.194,0,1,0-10.22-10.064A10.208,10.208,0,0,0,2006.42,736.288Z" transform="translate(-958.02 -344.511)" fill="#fff"/>
  </g>
</svg>
